<svg xmlns="http://www.w3.org/2000/svg" xmlns:xlink="http://www.w3.org/1999/xlink" width="196" zoomAndPan="magnify" viewBox="0 0 147 49.499998" height="66" preserveAspectRatio="xMidYMid meet" version="1.0"><defs><g/><clipPath id="8ac7d2e3ad"><path d="M 0.734375 0 L 146.265625 0 L 146.265625 49.003906 L 0.734375 49.003906 Z M 0.734375 0 " clip-rule="nonzero"/></clipPath><clipPath id="45738f05b8"><path d="M 51.679688 2.53125 L 94.742188 2.53125 L 94.742188 46.335938 L 51.679688 46.335938 Z M 51.679688 2.53125 " clip-rule="nonzero"/></clipPath></defs><g clip-path="url(#8ac7d2e3ad)"><path fill="#ffffff" d="M 0.734375 0 L 146.265625 0 L 146.265625 49.003906 L 0.734375 49.003906 Z M 0.734375 0 " fill-opacity="1" fill-rule="nonzero"/></g><path fill="#322415" d="M 82.644531 24.683594 C 82.878906 24.554688 82.878906 24.214844 82.644531 24.085938 C 82.425781 23.964844 82.402344 23.65625 82.605469 23.511719 C 82.824219 23.351562 82.78125 23.011719 82.527344 22.914062 C 82.300781 22.820312 82.238281 22.519531 82.421875 22.347656 C 82.617188 22.160156 82.527344 21.832031 82.273438 21.765625 C 82.03125 21.699219 81.933594 21.410156 82.09375 21.21875 C 82.261719 21.011719 82.136719 20.695312 81.875 20.664062 C 81.628906 20.628906 81.496094 20.351562 81.628906 20.136719 C 81.769531 19.90625 81.605469 19.613281 81.335938 19.613281 C 81.085938 19.613281 80.921875 19.351562 81.027344 19.125 C 81.140625 18.878906 80.9375 18.605469 80.675781 18.640625 C 80.429688 18.671875 80.234375 18.433594 80.308594 18.195312 C 80.390625 17.941406 80.164062 17.695312 79.898438 17.757812 C 79.660156 17.820312 79.433594 17.613281 79.480469 17.367188 C 79.527344 17.105469 79.265625 16.886719 79.015625 16.984375 C 78.78125 17.078125 78.535156 16.894531 78.550781 16.644531 C 78.566406 16.375 78.28125 16.195312 78.042969 16.320312 C 77.824219 16.441406 77.550781 16.292969 77.535156 16.042969 C 77.515625 15.777344 77.210938 15.632812 76.992188 15.785156 C 76.789062 15.933594 76.503906 15.820312 76.457031 15.574219 C 76.40625 15.3125 76.085938 15.207031 75.886719 15.386719 C 75.707031 15.558594 75.40625 15.480469 75.332031 15.246094 C 75.25 14.988281 74.914062 14.929688 74.738281 15.128906 C 74.582031 15.320312 74.277344 15.285156 74.167969 15.058594 C 74.050781 14.820312 73.710938 14.796875 73.570312 15.019531 C 73.433594 15.234375 73.128906 15.234375 72.992188 15.019531 C 72.84375 14.796875 72.511719 14.8125 72.394531 15.058594 C 72.285156 15.285156 71.980469 15.320312 71.820312 15.128906 C 71.644531 14.921875 71.316406 14.988281 71.230469 15.246094 C 71.152344 15.480469 70.855469 15.558594 70.671875 15.386719 C 70.476562 15.203125 70.152344 15.3125 70.105469 15.574219 C 70.054688 15.820312 69.769531 15.933594 69.570312 15.785156 C 69.351562 15.628906 69.042969 15.777344 69.027344 16.042969 C 69.011719 16.292969 68.742188 16.441406 68.519531 16.320312 C 68.285156 16.191406 67.996094 16.375 68.011719 16.644531 C 68.027344 16.894531 67.777344 17.078125 67.546875 16.984375 C 67.296875 16.886719 67.03125 17.105469 67.082031 17.367188 C 67.125 17.613281 66.902344 17.824219 66.660156 17.757812 C 66.398438 17.695312 66.167969 17.941406 66.25 18.195312 C 66.328125 18.4375 66.132812 18.671875 65.886719 18.640625 C 65.617188 18.605469 65.421875 18.878906 65.535156 19.125 C 65.640625 19.351562 65.476562 19.613281 65.222656 19.613281 C 64.957031 19.613281 64.792969 19.90625 64.933594 20.136719 C 65.066406 20.351562 64.933594 20.628906 64.6875 20.664062 C 64.421875 20.695312 64.292969 21.011719 64.46875 21.21875 C 64.628906 21.410156 64.535156 21.707031 64.289062 21.765625 C 64.027344 21.832031 63.945312 22.160156 64.140625 22.347656 C 64.320312 22.515625 64.265625 22.820312 64.03125 22.914062 C 63.78125 23.011719 63.742188 23.351562 63.957031 23.511719 C 64.15625 23.65625 64.136719 23.964844 63.917969 24.085938 C 63.683594 24.214844 63.683594 24.554688 63.917969 24.683594 C 64.136719 24.804688 64.15625 25.113281 63.957031 25.257812 C 63.738281 25.417969 63.78125 25.757812 64.03125 25.855469 C 64.261719 25.949219 64.320312 26.25 64.140625 26.421875 C 63.945312 26.609375 64.03125 26.9375 64.289062 27.003906 C 64.53125 27.070312 64.628906 27.359375 64.46875 27.550781 C 64.300781 27.757812 64.425781 28.074219 64.6875 28.105469 C 64.933594 28.140625 65.066406 28.417969 64.933594 28.632812 C 64.792969 28.863281 64.957031 29.15625 65.222656 29.15625 C 65.476562 29.15625 65.640625 29.417969 65.535156 29.644531 C 65.421875 29.890625 65.621094 30.164062 65.886719 30.128906 C 66.132812 30.097656 66.328125 30.335938 66.25 30.574219 C 66.167969 30.828125 66.398438 31.074219 66.660156 31.007812 C 66.902344 30.949219 67.125 31.15625 67.082031 31.402344 C 67.03125 31.664062 67.296875 31.882812 67.546875 31.785156 C 67.78125 31.691406 68.027344 31.875 68.011719 32.125 C 67.996094 32.390625 68.277344 32.574219 68.519531 32.445312 C 68.738281 32.328125 69.011719 32.472656 69.027344 32.726562 C 69.042969 32.992188 69.351562 33.136719 69.570312 32.984375 C 69.769531 32.835938 70.054688 32.949219 70.105469 33.195312 C 70.152344 33.457031 70.476562 33.5625 70.671875 33.382812 C 70.855469 33.210938 71.152344 33.289062 71.230469 33.523438 C 71.3125 33.78125 71.644531 33.839844 71.820312 33.640625 C 71.980469 33.449219 72.285156 33.484375 72.394531 33.710938 C 72.511719 33.949219 72.847656 33.972656 72.992188 33.75 C 73.128906 33.535156 73.433594 33.535156 73.570312 33.75 C 73.71875 33.972656 74.050781 33.957031 74.167969 33.710938 C 74.277344 33.484375 74.582031 33.449219 74.738281 33.640625 C 74.914062 33.847656 75.242188 33.78125 75.332031 33.523438 C 75.40625 33.289062 75.707031 33.210938 75.886719 33.382812 C 76.085938 33.566406 76.40625 33.457031 76.457031 33.195312 C 76.503906 32.949219 76.789062 32.835938 76.992188 32.984375 C 77.210938 33.140625 77.515625 32.992188 77.535156 32.726562 C 77.550781 32.472656 77.816406 32.328125 78.042969 32.445312 C 78.277344 32.578125 78.5625 32.390625 78.550781 32.125 C 78.535156 31.875 78.785156 31.691406 79.015625 31.785156 C 79.265625 31.882812 79.527344 31.664062 79.480469 31.402344 C 79.433594 31.15625 79.660156 30.945312 79.898438 31.007812 C 80.164062 31.074219 80.390625 30.828125 80.308594 30.574219 C 80.234375 30.332031 80.429688 30.097656 80.675781 30.128906 C 80.945312 30.164062 81.140625 29.890625 81.027344 29.644531 C 80.921875 29.417969 81.085938 29.15625 81.335938 29.15625 C 81.605469 29.15625 81.769531 28.863281 81.628906 28.632812 C 81.496094 28.417969 81.628906 28.140625 81.875 28.105469 C 82.140625 28.074219 82.265625 27.757812 82.09375 27.550781 C 81.933594 27.359375 82.027344 27.0625 82.273438 27.003906 C 82.535156 26.9375 82.617188 26.609375 82.421875 26.421875 C 82.238281 26.253906 82.292969 25.949219 82.527344 25.855469 C 82.78125 25.757812 82.820312 25.417969 82.605469 25.257812 C 82.410156 25.113281 82.425781 24.804688 82.644531 24.683594 Z M 72.027344 19.660156 C 72.109375 19.890625 71.984375 20.144531 71.761719 20.21875 C 71.710938 20.234375 71.664062 20.246094 71.617188 20.246094 C 71.4375 20.246094 71.269531 20.132812 71.203125 19.953125 C 71.121094 19.722656 71.246094 19.46875 71.472656 19.394531 C 71.699219 19.3125 71.945312 19.433594 72.027344 19.660156 Z M 72.074219 25.257812 C 72.121094 25.320312 72.109375 25.414062 72.050781 25.460938 C 72.023438 25.484375 71.992188 25.496094 71.957031 25.496094 C 71.914062 25.496094 71.875 25.476562 71.84375 25.441406 C 71.792969 25.378906 71.804688 25.285156 71.863281 25.238281 C 71.929688 25.1875 72.023438 25.199219 72.074219 25.257812 Z M 71.964844 23.128906 C 72.019531 23.074219 72.109375 23.066406 72.171875 23.128906 C 72.226562 23.183594 72.230469 23.273438 72.171875 23.335938 C 72.144531 23.363281 72.105469 23.378906 72.066406 23.378906 C 72.027344 23.378906 71.996094 23.363281 71.964844 23.335938 C 71.910156 23.28125 71.910156 23.1875 71.964844 23.128906 Z M 71.671875 24.035156 C 71.65625 24.035156 71.644531 24.035156 71.628906 24.03125 C 71.554688 24.007812 71.507812 23.925781 71.53125 23.847656 C 71.554688 23.773438 71.636719 23.730469 71.710938 23.75 C 71.789062 23.773438 71.832031 23.855469 71.808594 23.929688 C 71.792969 23.996094 71.738281 24.035156 71.671875 24.035156 Z M 71.679688 24.84375 C 71.667969 24.84375 71.65625 24.847656 71.644531 24.847656 C 71.582031 24.847656 71.519531 24.804688 71.503906 24.734375 C 71.488281 24.65625 71.535156 24.574219 71.613281 24.558594 C 71.691406 24.542969 71.773438 24.59375 71.789062 24.667969 C 71.804688 24.75 71.753906 24.828125 71.679688 24.84375 Z M 71 22.460938 C 70.929688 22.460938 70.859375 22.433594 70.804688 22.378906 C 70.695312 22.269531 70.695312 22.089844 70.804688 21.980469 C 70.914062 21.871094 71.09375 21.871094 71.203125 21.980469 C 71.3125 22.089844 71.3125 22.269531 71.203125 22.378906 C 71.144531 22.433594 71.074219 22.460938 71 22.460938 Z M 70.972656 26.511719 C 70.917969 26.554688 70.859375 26.570312 70.800781 26.570312 C 70.71875 26.570312 70.636719 26.53125 70.582031 26.46875 C 70.480469 26.347656 70.5 26.167969 70.625 26.066406 C 70.746094 25.96875 70.925781 25.984375 71.023438 26.113281 C 71.109375 26.238281 71.09375 26.414062 70.972656 26.511719 Z M 70.820312 17.523438 C 71.136719 17.414062 71.480469 17.578125 71.589844 17.894531 C 71.699219 18.214844 71.535156 18.558594 71.21875 18.667969 C 71.152344 18.6875 71.089844 18.699219 71.023438 18.699219 C 70.773438 18.699219 70.542969 18.542969 70.453125 18.296875 C 70.339844 17.976562 70.503906 17.632812 70.820312 17.523438 Z M 70.316406 23.1875 C 70.464844 23.230469 70.554688 23.390625 70.507812 23.539062 C 70.472656 23.65625 70.363281 23.738281 70.242188 23.738281 C 70.214844 23.738281 70.1875 23.734375 70.160156 23.730469 C 70.011719 23.683594 69.925781 23.527344 69.96875 23.378906 C 70.011719 23.226562 70.171875 23.144531 70.316406 23.1875 Z M 69.464844 20.664062 C 69.632812 20.488281 69.914062 20.488281 70.089844 20.65625 C 70.261719 20.828125 70.261719 21.105469 70.09375 21.28125 C 70.007812 21.367188 69.898438 21.410156 69.78125 21.410156 C 69.671875 21.410156 69.558594 21.367188 69.476562 21.285156 C 69.296875 21.109375 69.296875 20.832031 69.464844 20.664062 Z M 68.058594 19.273438 C 68.296875 19.039062 68.679688 19.035156 68.914062 19.269531 C 69.148438 19.503906 69.152344 19.886719 68.917969 20.121094 C 68.796875 20.242188 68.644531 20.300781 68.488281 20.300781 C 68.332031 20.300781 68.179688 20.242188 68.058594 20.125 C 67.824219 19.890625 67.824219 19.507812 68.058594 19.273438 Z M 66.875 26.40625 C 66.832031 26.417969 66.785156 26.421875 66.738281 26.421875 C 66.464844 26.421875 66.210938 26.230469 66.148438 25.953125 C 66.078125 25.632812 66.277344 25.304688 66.601562 25.230469 C 66.921875 25.15625 67.25 25.363281 67.324219 25.6875 C 67.40625 26.007812 67.203125 26.335938 66.875 26.40625 Z M 66.859375 23.039062 C 66.796875 23.039062 66.742188 23.027344 66.683594 23.011719 C 66.367188 22.914062 66.179688 22.582031 66.277344 22.257812 C 66.375 21.941406 66.710938 21.753906 67.03125 21.855469 C 67.351562 21.953125 67.535156 22.285156 67.4375 22.609375 C 67.359375 22.871094 67.121094 23.039062 66.859375 23.039062 Z M 68.425781 28.980469 C 68.316406 29.074219 68.179688 29.117188 68.050781 29.117188 C 67.875 29.117188 67.699219 29.042969 67.578125 28.894531 C 67.371094 28.636719 67.410156 28.253906 67.667969 28.046875 C 67.921875 27.839844 68.304688 27.878906 68.515625 28.132812 C 68.726562 28.390625 68.6875 28.769531 68.425781 28.980469 Z M 68.605469 25.84375 C 68.574219 25.847656 68.542969 25.855469 68.507812 25.855469 C 68.304688 25.855469 68.125 25.71875 68.082031 25.511719 C 68.027344 25.277344 68.175781 25.039062 68.414062 24.984375 C 68.652344 24.929688 68.886719 25.078125 68.941406 25.320312 C 68.988281 25.554688 68.84375 25.789062 68.605469 25.84375 Z M 68.597656 23.402344 C 68.550781 23.402344 68.515625 23.394531 68.46875 23.382812 C 68.234375 23.3125 68.109375 23.066406 68.175781 22.835938 C 68.246094 22.609375 68.492188 22.476562 68.722656 22.542969 C 68.953125 22.613281 69.082031 22.859375 69.015625 23.089844 C 68.957031 23.273438 68.78125 23.402344 68.597656 23.402344 Z M 69.734375 27.714844 C 69.652344 27.777344 69.550781 27.8125 69.460938 27.8125 C 69.335938 27.8125 69.203125 27.757812 69.117188 27.648438 C 68.960938 27.457031 68.996094 27.183594 69.179688 27.03125 C 69.367188 26.878906 69.644531 26.90625 69.796875 27.097656 C 69.953125 27.289062 69.925781 27.558594 69.734375 27.714844 Z M 69.90625 25.101562 C 69.875 24.949219 69.96875 24.800781 70.121094 24.761719 C 70.273438 24.730469 70.421875 24.820312 70.460938 24.976562 C 70.492188 25.128906 70.398438 25.277344 70.246094 25.3125 C 70.226562 25.320312 70.203125 25.320312 70.179688 25.320312 C 70.054688 25.320312 69.941406 25.226562 69.90625 25.101562 Z M 71.144531 30.675781 C 71.046875 30.90625 70.820312 31.042969 70.585938 31.042969 C 70.503906 31.042969 70.425781 31.027344 70.34375 30.992188 C 70.039062 30.863281 69.898438 30.507812 70.027344 30.199219 C 70.160156 29.894531 70.515625 29.753906 70.820312 29.882812 C 71.132812 30.015625 71.273438 30.371094 71.144531 30.675781 Z M 71.707031 28.945312 C 71.636719 29.105469 71.472656 29.210938 71.300781 29.210938 C 71.242188 29.210938 71.1875 29.199219 71.125 29.171875 C 70.902344 29.074219 70.800781 28.816406 70.898438 28.597656 C 70.992188 28.375 71.253906 28.269531 71.472656 28.371094 C 71.699219 28.460938 71.804688 28.726562 71.707031 28.945312 Z M 72.242188 27.304688 C 72.199219 27.414062 72.09375 27.472656 71.984375 27.472656 C 71.945312 27.472656 71.910156 27.46875 71.875 27.449219 C 71.734375 27.390625 71.667969 27.222656 71.726562 27.078125 C 71.789062 26.9375 71.957031 26.871094 72.101562 26.933594 C 72.238281 26.992188 72.300781 27.160156 72.242188 27.304688 Z M 72.273438 21.695312 C 72.242188 21.707031 72.214844 21.710938 72.183594 21.710938 C 72.066406 21.710938 71.957031 21.640625 71.914062 21.519531 C 71.863281 21.371094 71.941406 21.214844 72.089844 21.160156 C 72.238281 21.109375 72.394531 21.1875 72.449219 21.335938 C 72.5 21.488281 72.421875 21.644531 72.273438 21.695312 Z M 72.707031 25.871094 C 72.683594 25.925781 72.628906 25.957031 72.574219 25.957031 C 72.554688 25.957031 72.539062 25.953125 72.519531 25.949219 C 72.445312 25.914062 72.410156 25.832031 72.445312 25.757812 C 72.476562 25.679688 72.558594 25.648438 72.636719 25.679688 C 72.699219 25.714844 72.738281 25.792969 72.707031 25.871094 Z M 72.722656 22.984375 C 72.707031 22.992188 72.691406 22.992188 72.675781 22.992188 C 72.613281 22.992188 72.558594 22.953125 72.539062 22.890625 C 72.511719 22.816406 72.546875 22.734375 72.625 22.707031 C 72.699219 22.679688 72.78125 22.71875 72.808594 22.792969 C 72.835938 22.875 72.800781 22.957031 72.722656 22.984375 Z M 78.910156 20.941406 C 79.210938 20.800781 79.570312 20.925781 79.714844 21.226562 C 79.855469 21.527344 79.730469 21.886719 79.429688 22.027344 C 79.347656 22.066406 79.253906 22.089844 79.167969 22.089844 C 78.945312 22.089844 78.726562 21.964844 78.621094 21.746094 C 78.480469 21.449219 78.605469 21.089844 78.910156 20.941406 Z M 77.722656 22.664062 C 77.664062 22.691406 77.597656 22.707031 77.535156 22.707031 C 77.371094 22.707031 77.210938 22.613281 77.140625 22.457031 C 77.035156 22.238281 77.128906 21.972656 77.347656 21.871094 C 77.566406 21.765625 77.828125 21.859375 77.933594 22.078125 C 78.035156 22.296875 77.941406 22.558594 77.722656 22.664062 Z M 76.824219 18.777344 C 77.03125 18.515625 77.40625 18.46875 77.667969 18.679688 C 77.933594 18.886719 77.976562 19.261719 77.769531 19.523438 C 77.648438 19.679688 77.472656 19.753906 77.292969 19.753906 C 77.160156 19.753906 77.03125 19.710938 76.921875 19.625 C 76.664062 19.414062 76.613281 19.039062 76.824219 18.777344 Z M 75.832031 20.300781 C 75.980469 20.109375 76.257812 20.078125 76.449219 20.230469 C 76.640625 20.378906 76.675781 20.65625 76.523438 20.847656 C 76.433594 20.957031 76.308594 21.015625 76.175781 21.015625 C 76.085938 21.015625 75.984375 20.984375 75.90625 20.925781 C 75.714844 20.765625 75.679688 20.492188 75.832031 20.300781 Z M 76.570312 24.351562 C 76.570312 24.511719 76.445312 24.636719 76.285156 24.636719 C 76.128906 24.636719 76.003906 24.511719 76.003906 24.351562 C 76.003906 24.199219 76.128906 24.066406 76.285156 24.066406 C 76.445312 24.066406 76.570312 24.191406 76.570312 24.351562 Z M 75.867188 22.761719 C 76.007812 22.695312 76.175781 22.75 76.242188 22.890625 C 76.308594 23.035156 76.253906 23.203125 76.113281 23.269531 C 76.074219 23.285156 76.03125 23.296875 75.992188 23.296875 C 75.886719 23.296875 75.785156 23.238281 75.742188 23.136719 C 75.664062 22.996094 75.722656 22.828125 75.867188 22.761719 Z M 75.640625 25.742188 C 75.71875 25.605469 75.894531 25.558594 76.023438 25.636719 C 76.160156 25.714844 76.203125 25.886719 76.128906 26.019531 C 76.078125 26.113281 75.980469 26.160156 75.882812 26.160156 C 75.832031 26.160156 75.789062 26.148438 75.746094 26.121094 C 75.613281 26.046875 75.566406 25.871094 75.640625 25.742188 Z M 73.800781 17.726562 C 73.859375 17.398438 74.171875 17.179688 74.5 17.242188 C 74.828125 17.300781 75.046875 17.617188 74.984375 17.945312 C 74.929688 18.234375 74.679688 18.441406 74.390625 18.441406 C 74.351562 18.441406 74.320312 18.4375 74.28125 18.433594 C 73.957031 18.371094 73.738281 18.054688 73.800781 17.726562 Z M 74.652344 25.011719 C 74.722656 25.050781 74.746094 25.140625 74.707031 25.210938 C 74.679688 25.257812 74.628906 25.28125 74.582031 25.28125 C 74.558594 25.28125 74.53125 25.277344 74.511719 25.257812 C 74.4375 25.222656 74.417969 25.132812 74.457031 25.0625 C 74.492188 24.996094 74.585938 24.96875 74.652344 25.011719 Z M 74.570312 23.53125 C 74.640625 23.5 74.730469 23.527344 74.765625 23.597656 C 74.800781 23.667969 74.773438 23.757812 74.703125 23.789062 C 74.679688 23.800781 74.65625 23.804688 74.640625 23.804688 C 74.585938 23.804688 74.539062 23.773438 74.511719 23.722656 C 74.464844 23.652344 74.5 23.566406 74.570312 23.53125 Z M 74.648438 24.351562 C 74.648438 24.269531 74.710938 24.203125 74.792969 24.203125 C 74.875 24.203125 74.941406 24.269531 74.941406 24.351562 C 74.941406 24.433594 74.875 24.492188 74.792969 24.492188 C 74.710938 24.492188 74.648438 24.429688 74.648438 24.351562 Z M 73.636719 19.542969 C 73.679688 19.300781 73.910156 19.144531 74.144531 19.1875 C 74.382812 19.230469 74.542969 19.460938 74.5 19.695312 C 74.460938 19.90625 74.277344 20.054688 74.066406 20.054688 C 74.039062 20.054688 74.011719 20.054688 73.984375 20.050781 C 73.75 20.007812 73.59375 19.777344 73.636719 19.542969 Z M 74.183594 23.246094 C 74.148438 23.246094 74.117188 23.238281 74.09375 23.214844 C 74.03125 23.164062 74.019531 23.074219 74.074219 23.011719 C 74.121094 22.945312 74.214844 22.9375 74.277344 22.992188 C 74.339844 23.039062 74.351562 23.132812 74.296875 23.191406 C 74.269531 23.226562 74.226562 23.246094 74.183594 23.246094 Z M 74.132812 25.816406 C 74.113281 25.832031 74.085938 25.839844 74.058594 25.839844 C 74.007812 25.839844 73.964844 25.816406 73.9375 25.773438 C 73.894531 25.707031 73.914062 25.613281 73.980469 25.570312 C 74.046875 25.527344 74.140625 25.550781 74.183594 25.613281 C 74.222656 25.679688 74.199219 25.773438 74.132812 25.816406 Z M 73.476562 21.257812 C 73.503906 21.105469 73.652344 21 73.804688 21.027344 C 73.957031 21.054688 74.0625 21.203125 74.035156 21.355469 C 74.007812 21.492188 73.894531 21.585938 73.757812 21.585938 C 73.738281 21.585938 73.722656 21.585938 73.707031 21.582031 C 73.554688 21.558594 73.449219 21.410156 73.476562 21.257812 Z M 73.339844 22.753906 C 73.355469 22.679688 73.429688 22.625 73.511719 22.640625 C 73.585938 22.65625 73.640625 22.726562 73.625 22.808594 C 73.613281 22.882812 73.554688 22.929688 73.484375 22.929688 C 73.472656 22.929688 73.464844 22.929688 73.457031 22.929688 C 73.378906 22.914062 73.328125 22.835938 73.339844 22.753906 Z M 73.363281 25.789062 C 73.445312 25.777344 73.515625 25.839844 73.519531 25.914062 C 73.53125 25.996094 73.472656 26.066406 73.394531 26.074219 C 73.390625 26.074219 73.382812 26.074219 73.378906 26.074219 C 73.308594 26.074219 73.242188 26.019531 73.238281 25.941406 C 73.226562 25.867188 73.28125 25.792969 73.363281 25.789062 Z M 73.265625 27.449219 C 73.246094 27.296875 73.355469 27.15625 73.515625 27.140625 C 73.667969 27.125 73.8125 27.234375 73.828125 27.390625 C 73.84375 27.542969 73.734375 27.6875 73.574219 27.703125 C 73.566406 27.703125 73.554688 27.703125 73.542969 27.703125 C 73.402344 27.703125 73.28125 27.597656 73.265625 27.449219 Z M 73.683594 28.691406 C 73.925781 28.664062 74.144531 28.839844 74.171875 29.078125 C 74.199219 29.320312 74.023438 29.539062 73.785156 29.566406 C 73.765625 29.566406 73.75 29.566406 73.734375 29.566406 C 73.515625 29.566406 73.324219 29.402344 73.296875 29.179688 C 73.273438 28.9375 73.445312 28.71875 73.683594 28.691406 Z M 74.003906 31.527344 C 73.980469 31.527344 73.957031 31.535156 73.9375 31.535156 C 73.628906 31.535156 73.375 31.304688 73.335938 31 C 73.296875 30.664062 73.539062 30.371094 73.871094 30.332031 C 74.203125 30.292969 74.5 30.535156 74.539062 30.867188 C 74.574219 31.195312 74.335938 31.496094 74.003906 31.527344 Z M 75.011719 27.195312 C 74.964844 27.222656 74.914062 27.238281 74.859375 27.238281 C 74.765625 27.238281 74.675781 27.195312 74.621094 27.105469 C 74.539062 26.976562 74.574219 26.800781 74.707031 26.71875 C 74.839844 26.636719 75.011719 26.675781 75.09375 26.804688 C 75.183594 26.9375 75.144531 27.113281 75.011719 27.195312 Z M 75.113281 22.203125 C 75.050781 22.203125 74.992188 22.183594 74.9375 22.144531 C 74.816406 22.046875 74.792969 21.871094 74.886719 21.75 C 74.984375 21.628906 75.160156 21.609375 75.285156 21.699219 C 75.40625 21.800781 75.429688 21.972656 75.332031 22.101562 C 75.277344 22.164062 75.195312 22.203125 75.113281 22.203125 Z M 76.019531 28.773438 C 75.949219 28.824219 75.867188 28.84375 75.785156 28.84375 C 75.640625 28.84375 75.5 28.773438 75.414062 28.644531 C 75.28125 28.441406 75.339844 28.167969 75.542969 28.035156 C 75.746094 27.90625 76.019531 27.964844 76.148438 28.167969 C 76.285156 28.375 76.226562 28.644531 76.019531 28.773438 Z M 77.085938 30.441406 C 76.980469 30.507812 76.871094 30.535156 76.761719 30.535156 C 76.566406 30.535156 76.367188 30.4375 76.253906 30.253906 C 76.074219 29.976562 76.15625 29.597656 76.441406 29.417969 C 76.71875 29.238281 77.097656 29.320312 77.277344 29.605469 C 77.445312 29.890625 77.363281 30.261719 77.085938 30.441406 Z M 77.761719 26.941406 C 77.679688 27.085938 77.535156 27.167969 77.378906 27.167969 C 77.308594 27.167969 77.234375 27.152344 77.160156 27.105469 C 76.949219 26.988281 76.878906 26.71875 76.996094 26.511719 C 77.117188 26.296875 77.386719 26.226562 77.597656 26.347656 C 77.804688 26.46875 77.882812 26.734375 77.761719 26.941406 Z M 78.007812 24.789062 C 77.769531 24.789062 77.570312 24.59375 77.570312 24.351562 C 77.570312 24.113281 77.769531 23.914062 78.007812 23.914062 C 78.25 23.914062 78.445312 24.113281 78.445312 24.351562 C 78.445312 24.59375 78.25 24.789062 78.007812 24.789062 Z M 79.480469 27.921875 C 79.371094 28.117188 79.164062 28.226562 78.953125 28.226562 C 78.851562 28.226562 78.753906 28.199219 78.652344 28.144531 C 78.363281 27.980469 78.261719 27.609375 78.429688 27.320312 C 78.59375 27.03125 78.964844 26.925781 79.253906 27.097656 C 79.542969 27.261719 79.648438 27.632812 79.480469 27.921875 Z M 79.816406 24.953125 C 79.484375 24.953125 79.210938 24.683594 79.210938 24.347656 C 79.210938 24.011719 79.480469 23.746094 79.816406 23.746094 C 80.152344 23.746094 80.417969 24.011719 80.417969 24.347656 C 80.425781 24.683594 80.152344 24.953125 79.816406 24.953125 Z M 79.816406 24.953125 " fill-opacity="1" fill-rule="nonzero"/><g clip-path="url(#45738f05b8)"><path fill="#f6b600" d="M 85.679688 27.101562 C 84.886719 26.855469 84.074219 26.664062 83.257812 26.523438 C 83.316406 26.242188 83.367188 25.964844 83.398438 25.675781 C 84.914062 26.332031 86.53125 26.675781 88.117188 27.117188 C 89.941406 27.625 91.65625 28.320312 93.0625 29.621094 C 93.230469 29.78125 93.429688 29.945312 93.640625 30.074219 C 93.214844 30.085938 92.789062 30.046875 92.367188 29.960938 C 91.894531 29.863281 91.433594 29.703125 90.984375 29.507812 C 90.09375 29.117188 89.269531 28.597656 88.394531 28.167969 C 87.519531 27.742188 86.605469 27.390625 85.679688 27.101562 Z M 88.597656 13.71875 C 88.355469 14.109375 88.089844 14.480469 87.804688 14.828125 C 87.023438 15.796875 86.082031 16.628906 85.027344 17.277344 C 85.625 17.125 86.234375 17.023438 86.847656 16.945312 C 87.722656 16.835938 88.625 16.722656 89.507812 16.742188 C 90.144531 16.757812 90.710938 16.90625 91.269531 17.160156 C 91.738281 16.90625 92.039062 16.207031 92.457031 15.777344 C 92.445312 15.777344 92.433594 15.78125 92.421875 15.78125 C 92.089844 15.839844 91.757812 15.867188 91.417969 15.894531 C 91.082031 15.917969 90.75 15.933594 90.417969 15.960938 C 90.082031 15.988281 89.75 16.019531 89.425781 16.125 C 89.746094 16.011719 90.078125 15.96875 90.410156 15.921875 C 90.746094 15.878906 91.078125 15.851562 91.410156 15.8125 C 91.746094 15.777344 92.074219 15.730469 92.402344 15.660156 C 92.492188 15.640625 92.582031 15.617188 92.667969 15.589844 C 92.789062 15.503906 92.921875 15.449219 93.074219 15.429688 C 93.113281 15.410156 93.148438 15.386719 93.183594 15.367188 C 92.820312 15.179688 92.4375 15.039062 92.046875 14.9375 C 91.609375 14.828125 91.15625 14.769531 90.699219 14.757812 C 90.246094 14.753906 89.792969 14.796875 89.351562 14.90625 C 88.910156 15.015625 88.480469 15.191406 88.097656 15.449219 C 88.472656 15.183594 88.898438 14.992188 89.339844 14.867188 C 89.78125 14.742188 90.242188 14.683594 90.699219 14.675781 C 91.160156 14.671875 91.625 14.71875 92.074219 14.820312 C 92.457031 14.90625 92.832031 15.027344 93.195312 15.195312 C 92.757812 14.546875 91.875 14.191406 91.191406 13.890625 C 90.355469 13.519531 89.460938 13.308594 88.597656 13.71875 Z M 87.671875 10.652344 C 87.953125 10.332031 88.199219 9.96875 88.394531 9.59375 C 88.710938 9.417969 88.988281 9.183594 89.105469 8.855469 C 89.160156 9.15625 89.203125 9.457031 89.207031 9.761719 C 89.21875 10.167969 89.175781 10.578125 89.050781 10.964844 C 88.925781 11.351562 88.71875 11.707031 88.449219 12.019531 C 88.179688 12.332031 87.863281 12.59375 87.519531 12.828125 C 87.871094 12.605469 88.199219 12.355469 88.476562 12.046875 C 88.753906 11.742188 88.984375 11.386719 89.125 10.992188 C 89.269531 10.597656 89.328125 10.179688 89.328125 9.761719 C 89.328125 9.484375 89.308594 9.207031 89.261719 8.933594 C 90.128906 10.34375 89.273438 12.226562 88.445312 13.554688 C 88.421875 13.574219 88.410156 13.589844 88.410156 13.609375 C 88.355469 13.703125 88.296875 13.792969 88.242188 13.875 C 87.171875 15.484375 85.683594 16.804688 83.929688 17.628906 C 83.90625 17.640625 83.894531 17.648438 83.886719 17.667969 C 83.152344 17.972656 82.46875 18.394531 81.902344 18.945312 C 81.691406 18.617188 81.46875 18.300781 81.222656 18 C 82.347656 17.585938 83.425781 17.039062 84.421875 16.371094 C 83.386719 17.003906 82.277344 17.515625 81.128906 17.886719 C 81.027344 17.757812 80.917969 17.632812 80.808594 17.515625 C 81.304688 17.261719 81.792969 16.988281 82.261719 16.699219 C 82.578125 16.503906 82.894531 16.292969 83.195312 16.070312 C 83.496094 15.847656 83.785156 15.613281 84.058594 15.347656 C 83.78125 15.601562 83.480469 15.824219 83.175781 16.039062 C 82.867188 16.25 82.546875 16.449219 82.222656 16.632812 C 81.730469 16.914062 81.222656 17.167969 80.710938 17.410156 C 80.554688 17.246094 80.398438 17.085938 80.234375 16.933594 C 80.757812 16.289062 81.320312 15.683594 81.917969 15.109375 C 82.617188 14.441406 83.367188 13.820312 84.164062 13.261719 C 84.960938 12.710938 85.820312 12.238281 86.597656 11.652344 C 86.984375 11.347656 87.355469 11.019531 87.671875 10.652344 Z M 84.859375 14.726562 C 84.804688 14.714844 84.730469 14.742188 84.726562 14.800781 C 84.722656 14.828125 84.714844 14.855469 84.710938 14.882812 C 84.699219 14.9375 84.726562 15.003906 84.785156 15.015625 C 84.839844 15.027344 84.914062 15 84.917969 14.9375 C 84.921875 14.910156 84.929688 14.882812 84.933594 14.855469 C 84.945312 14.800781 84.921875 14.738281 84.859375 14.726562 Z M 85.699219 14.207031 C 85.644531 14.195312 85.574219 14.222656 85.570312 14.285156 C 85.5625 14.3125 85.558594 14.339844 85.550781 14.367188 C 85.542969 14.417969 85.570312 14.484375 85.628906 14.496094 C 85.683594 14.507812 85.753906 14.480469 85.757812 14.417969 C 85.765625 14.390625 85.769531 14.367188 85.777344 14.339844 C 85.785156 14.285156 85.757812 14.21875 85.699219 14.207031 Z M 86.796875 13.632812 C 86.777344 13.527344 86.65625 13.457031 86.558594 13.492188 C 86.503906 13.507812 86.460938 13.566406 86.480469 13.621094 C 86.496094 13.671875 86.546875 13.710938 86.597656 13.703125 C 86.617188 13.746094 86.671875 13.773438 86.722656 13.765625 C 86.777344 13.746094 86.808594 13.691406 86.796875 13.632812 Z M 79.03125 11.40625 C 79.167969 10.894531 79.261719 10.371094 79.292969 9.839844 C 79.480469 9.269531 79.839844 8.832031 80.238281 8.402344 C 80.65625 7.957031 81.074219 7.515625 81.535156 7.117188 C 82.304688 6.449219 83.21875 5.910156 84.230469 5.761719 C 83.875 6.011719 83.546875 6.308594 83.257812 6.628906 C 83.074219 6.832031 82.90625 7.039062 82.757812 7.265625 C 82.605469 7.488281 82.472656 7.71875 82.367188 7.964844 C 82.492188 7.730469 82.636719 7.503906 82.800781 7.296875 C 82.964844 7.089844 83.148438 6.894531 83.332031 6.707031 C 83.601562 6.449219 83.890625 6.214844 84.203125 6.011719 C 83.683594 6.703125 83.648438 7.777344 83.617188 8.582031 C 83.5625 10.023438 83.628906 11.554688 82.835938 12.828125 C 81.675781 13.964844 80.582031 15.175781 79.269531 16.140625 C 78.703125 15.726562 78.089844 15.371094 77.441406 15.082031 C 79.003906 14.511719 80.453125 13.65625 81.691406 12.5625 C 80.4375 13.574219 79 14.347656 77.480469 14.847656 C 79.144531 13.628906 80.375 11.84375 80.921875 9.878906 C 80.328125 11.78125 79.089844 13.457031 77.484375 14.59375 C 78.179688 13.621094 78.71875 12.550781 79.03125 11.40625 Z M 82.589844 10.511719 C 82.902344 10.511719 82.902344 10.03125 82.589844 10.03125 C 82.277344 10.03125 82.277344 10.511719 82.589844 10.511719 Z M 60.882812 21.664062 C 59.949219 21.371094 59.035156 21.023438 58.160156 20.597656 C 57.285156 20.164062 56.460938 19.644531 55.570312 19.257812 C 55.128906 19.0625 54.664062 18.902344 54.1875 18.804688 C 53.773438 18.714844 53.339844 18.679688 52.914062 18.6875 C 53.128906 18.820312 53.324219 18.984375 53.492188 19.144531 C 54.898438 20.445312 56.613281 21.136719 58.441406 21.644531 C 60.023438 22.089844 61.644531 22.4375 63.15625 23.089844 C 63.195312 22.804688 63.246094 22.519531 63.300781 22.242188 C 62.484375 22.105469 61.675781 21.910156 60.882812 21.664062 Z M 79.453125 16.265625 C 79.679688 16.441406 79.898438 16.621094 80.113281 16.8125 C 80.648438 16.175781 81.222656 15.566406 81.828125 15.003906 C 82.546875 14.34375 83.304688 13.726562 84.113281 13.179688 C 84.921875 12.636719 85.785156 12.179688 86.570312 11.605469 C 86.957031 11.316406 87.328125 11 87.652344 10.636719 C 87.933594 10.320312 88.179688 9.964844 88.382812 9.59375 C 88.164062 9.714844 87.925781 9.800781 87.707031 9.867188 C 85.875 10.429688 84.421875 11.570312 83.066406 12.894531 C 81.890625 14.054688 80.78125 15.285156 79.453125 16.265625 Z M 90.066406 17.605469 C 89.996094 17.613281 89.929688 17.625 89.859375 17.632812 C 89.929688 17.625 89.996094 17.617188 90.066406 17.617188 C 90.136719 17.613281 90.203125 17.617188 90.273438 17.617188 C 90.410156 17.625 90.546875 17.632812 90.683594 17.648438 C 90.957031 17.675781 91.230469 17.714844 91.503906 17.765625 C 91.777344 17.808594 92.046875 17.863281 92.3125 17.921875 C 92.378906 17.941406 92.445312 17.949219 92.511719 17.96875 C 92.621094 18.003906 92.734375 18.039062 92.847656 18.058594 C 92.894531 18.070312 92.929688 18.085938 92.96875 18.097656 C 92.953125 18.113281 92.929688 18.125 92.914062 18.140625 C 92.035156 18.066406 91.148438 18.066406 90.265625 18.140625 L 89.53125 18.21875 L 88.804688 18.324219 L 88.082031 18.460938 L 87.367188 18.625 L 86.660156 18.820312 L 85.960938 19.042969 L 85.273438 19.300781 L 84.59375 19.585938 L 83.933594 19.902344 L 83.285156 20.246094 L 82.738281 20.570312 C 82.535156 20.066406 82.289062 19.578125 82.015625 19.121094 C 83.300781 17.839844 85.132812 17.367188 86.898438 17.152344 C 87.753906 17.050781 88.640625 16.941406 89.507812 16.957031 C 90.328125 16.972656 91 17.246094 91.71875 17.613281 C 91.800781 17.65625 91.882812 17.695312 91.96875 17.738281 C 91.816406 17.714844 91.667969 17.695312 91.515625 17.675781 C 91.242188 17.644531 90.964844 17.617188 90.691406 17.605469 C 90.554688 17.601562 90.410156 17.597656 90.273438 17.597656 C 90.210938 17.601562 90.136719 17.601562 90.066406 17.605469 Z M 85.617188 18.453125 C 85.367188 18.433594 85.109375 18.453125 84.859375 18.503906 C 84.605469 18.550781 84.367188 18.640625 84.128906 18.738281 C 83.894531 18.84375 83.675781 18.96875 83.464844 19.109375 C 83.257812 19.253906 83.058594 19.414062 82.878906 19.597656 C 83.085938 19.449219 83.292969 19.3125 83.507812 19.179688 C 83.722656 19.054688 83.945312 18.933594 84.167969 18.835938 C 84.398438 18.734375 84.628906 18.652344 84.867188 18.578125 C 85.121094 18.523438 85.367188 18.480469 85.617188 18.453125 Z M 86.246094 18.164062 C 86.234375 18.167969 86.222656 18.179688 86.21875 18.1875 C 86.105469 18.269531 86.214844 18.453125 86.328125 18.378906 C 86.339844 18.371094 86.351562 18.359375 86.355469 18.355469 C 86.464844 18.273438 86.359375 18.082031 86.246094 18.164062 Z M 87.132812 18.109375 C 87.0625 17.988281 86.871094 18.097656 86.941406 18.21875 C 87.011719 18.339844 87.203125 18.230469 87.132812 18.109375 Z M 88.261719 17.804688 C 88.191406 17.683594 88 17.792969 88.070312 17.914062 C 88.148438 18.039062 88.335938 17.929688 88.261719 17.804688 Z M 92.363281 22.898438 C 93.324219 23.230469 94.25 23.75 94.882812 24.546875 C 94.484375 24.367188 94.074219 24.230469 93.648438 24.144531 C 93.386719 24.089844 93.117188 24.050781 92.847656 24.03125 C 92.582031 24.007812 92.3125 24.007812 92.046875 24.035156 C 92.3125 24.023438 92.582031 24.046875 92.84375 24.078125 C 93.105469 24.117188 93.367188 24.171875 93.621094 24.246094 C 93.976562 24.351562 94.324219 24.484375 94.652344 24.652344 C 93.796875 24.546875 92.847656 25.058594 92.132812 25.429688 C 90.855469 26.101562 89.5625 26.921875 88.066406 26.878906 C 86.503906 26.441406 84.90625 26.101562 83.421875 25.445312 C 83.457031 25.09375 83.476562 24.738281 83.476562 24.378906 C 83.476562 24.023438 83.457031 23.675781 83.421875 23.324219 C 84.695312 24.390625 86.164062 25.214844 87.726562 25.746094 C 86.222656 25.167969 84.832031 24.308594 83.640625 23.242188 C 85.53125 24.078125 87.683594 24.253906 89.664062 23.738281 C 87.714844 24.175781 85.644531 23.949219 83.859375 23.117188 C 85.039062 23.238281 86.234375 23.164062 87.382812 22.863281 C 87.898438 22.726562 88.394531 22.546875 88.871094 22.3125 C 88.871094 22.3125 88.875 22.3125 88.875 22.3125 C 89.460938 22.191406 90.019531 22.28125 90.589844 22.410156 C 91.199219 22.554688 91.789062 22.699219 92.363281 22.898438 Z M 90.363281 25.265625 C 90.210938 24.996094 89.789062 25.238281 89.941406 25.503906 C 90.101562 25.777344 90.519531 25.539062 90.363281 25.265625 Z M 86.109375 20.933594 L 87.316406 20.535156 L 86.097656 20.898438 C 85.695312 21.015625 85.285156 21.144531 84.875 21.234375 C 84.667969 21.285156 84.457031 21.324219 84.25 21.351562 C 84.042969 21.378906 83.835938 21.394531 83.621094 21.398438 C 83.425781 21.40625 83.230469 21.398438 83.039062 21.394531 C 82.957031 21.132812 82.863281 20.871094 82.765625 20.613281 C 83.375 20.28125 84.011719 19.972656 84.65625 19.707031 L 85.332031 19.4375 L 86.023438 19.191406 L 86.714844 18.972656 L 87.421875 18.78125 L 88.132812 18.613281 L 88.847656 18.46875 L 89.570312 18.355469 L 90.292969 18.269531 C 91.160156 18.175781 92.035156 18.140625 92.910156 18.160156 C 92.703125 18.324219 92.464844 18.464844 92.238281 18.601562 C 91.929688 18.777344 91.621094 18.933594 91.300781 19.082031 C 90.984375 19.230469 90.664062 19.378906 90.339844 19.515625 C 90.019531 19.65625 89.695312 19.792969 89.371094 19.941406 C 89.699219 19.804688 90.027344 19.679688 90.355469 19.550781 C 90.683594 19.421875 91.011719 19.296875 91.339844 19.152344 C 91.664062 19.015625 91.984375 18.871094 92.300781 18.707031 C 92.421875 18.640625 92.542969 18.574219 92.664062 18.503906 C 91.695312 19.367188 91.023438 20.558594 90 21.367188 C 88.699219 22.394531 87.042969 22.875 85.40625 22.941406 C 84.730469 22.96875 84.054688 22.929688 83.394531 22.832031 C 83.328125 22.390625 83.230469 21.953125 83.109375 21.53125 C 83.292969 21.53125 83.476562 21.527344 83.660156 21.515625 C 83.875 21.503906 84.085938 21.480469 84.300781 21.445312 C 84.511719 21.40625 84.722656 21.363281 84.921875 21.308594 C 85.304688 21.207031 85.703125 21.070312 86.109375 20.933594 Z M 88.625 20.503906 C 88.652344 20.546875 88.722656 20.582031 88.773438 20.542969 C 88.804688 20.519531 88.835938 20.5 88.863281 20.476562 C 88.914062 20.445312 88.941406 20.378906 88.902344 20.328125 C 88.875 20.285156 88.804688 20.253906 88.753906 20.289062 C 88.722656 20.3125 88.691406 20.335938 88.664062 20.355469 C 88.617188 20.390625 88.589844 20.449219 88.625 20.503906 Z M 87.644531 19.917969 C 87.671875 19.960938 87.742188 19.996094 87.792969 19.957031 C 87.808594 19.945312 87.824219 19.933594 87.84375 19.925781 C 87.890625 19.890625 87.917969 19.824219 87.878906 19.777344 C 87.851562 19.734375 87.78125 19.699219 87.734375 19.738281 C 87.714844 19.75 87.699219 19.761719 87.683594 19.769531 C 87.640625 19.804688 87.613281 19.863281 87.644531 19.917969 Z M 56.242188 29.25 C 56.566406 29.105469 56.886719 28.972656 57.210938 28.824219 C 56.882812 28.960938 56.554688 29.085938 56.226562 29.210938 C 55.898438 29.34375 55.570312 29.46875 55.242188 29.609375 C 54.917969 29.746094 54.597656 29.894531 54.28125 30.058594 C 54.160156 30.125 54.039062 30.191406 53.917969 30.261719 C 54.886719 29.398438 55.558594 28.207031 56.582031 27.394531 C 57.882812 26.367188 59.539062 25.886719 61.179688 25.820312 C 61.851562 25.792969 62.527344 25.832031 63.191406 25.929688 C 63.253906 26.375 63.355469 26.8125 63.472656 27.234375 C 63.289062 27.234375 63.109375 27.238281 62.921875 27.25 C 62.710938 27.261719 62.496094 27.28125 62.28125 27.320312 C 62.070312 27.359375 61.863281 27.402344 61.660156 27.457031 C 61.25 27.566406 60.84375 27.703125 60.441406 27.839844 L 59.234375 28.238281 L 60.453125 27.878906 C 60.855469 27.757812 61.265625 27.632812 61.675781 27.539062 C 61.882812 27.488281 62.089844 27.449219 62.300781 27.421875 C 62.507812 27.394531 62.714844 27.378906 62.929688 27.375 C 63.125 27.371094 63.320312 27.375 63.511719 27.378906 C 63.59375 27.640625 63.6875 27.90625 63.785156 28.160156 C 63.171875 28.496094 62.539062 28.800781 61.894531 29.070312 L 61.21875 29.335938 L 60.527344 29.582031 L 59.832031 29.800781 L 59.128906 29.992188 L 58.417969 30.164062 L 57.703125 30.304688 L 56.980469 30.417969 L 56.257812 30.507812 C 55.390625 30.601562 54.515625 30.632812 53.640625 30.617188 C 53.847656 30.453125 54.082031 30.308594 54.3125 30.171875 C 54.621094 30 54.929688 29.839844 55.246094 29.691406 C 55.597656 29.535156 55.914062 29.386719 56.242188 29.25 Z M 58.679688 28.992188 C 58.707031 29.035156 58.777344 29.070312 58.828125 29.03125 C 58.84375 29.019531 58.859375 29.007812 58.878906 29 C 58.925781 28.964844 58.953125 28.898438 58.914062 28.851562 C 58.886719 28.808594 58.816406 28.773438 58.769531 28.8125 C 58.75 28.824219 58.734375 28.835938 58.71875 28.84375 C 58.675781 28.871094 58.648438 28.9375 58.679688 28.992188 Z M 57.652344 28.441406 C 57.679688 28.484375 57.75 28.515625 57.800781 28.480469 C 57.832031 28.457031 57.867188 28.433594 57.894531 28.414062 C 57.941406 28.378906 57.96875 28.316406 57.933594 28.265625 C 57.90625 28.222656 57.832031 28.1875 57.785156 28.226562 C 57.75 28.25 57.71875 28.269531 57.691406 28.292969 C 57.648438 28.320312 57.621094 28.386719 57.652344 28.441406 Z M 76.484375 6.601562 C 76.839844 5.804688 77.242188 5.027344 77.695312 4.285156 C 77.734375 4.546875 77.746094 4.820312 77.746094 5.089844 C 77.746094 5.4375 77.722656 5.789062 77.695312 6.140625 C 77.667969 6.488281 77.632812 6.839844 77.59375 7.1875 C 77.554688 7.539062 77.511719 7.886719 77.480469 8.238281 C 77.527344 7.886719 77.582031 7.539062 77.632812 7.195312 C 77.6875 6.84375 77.734375 6.492188 77.777344 6.144531 C 77.824219 5.792969 77.855469 5.4375 77.871094 5.089844 C 77.878906 4.953125 77.882812 4.816406 77.878906 4.679688 C 78.140625 5.949219 78.839844 7.128906 79.027344 8.417969 C 79.265625 10.058594 78.851562 11.730469 78.089844 13.191406 C 77.777344 13.785156 77.40625 14.355469 76.988281 14.878906 C 76.578125 14.71875 76.148438 14.582031 75.71875 14.472656 C 75.8125 14.316406 75.898438 14.15625 75.980469 13.988281 C 76.078125 13.796875 76.160156 13.601562 76.238281 13.398438 C 76.3125 13.195312 76.375 12.992188 76.429688 12.785156 C 76.539062 12.375 76.621094 11.953125 76.707031 11.539062 L 76.964844 10.292969 L 76.664062 11.527344 C 76.566406 11.9375 76.46875 12.355469 76.347656 12.757812 C 76.285156 12.960938 76.214844 13.15625 76.140625 13.355469 C 76.058594 13.550781 75.96875 13.738281 75.867188 13.921875 C 75.773438 14.09375 75.675781 14.261719 75.570312 14.429688 C 75.304688 14.371094 75.035156 14.316406 74.757812 14.277344 C 74.773438 13.578125 74.828125 12.878906 74.914062 12.191406 L 75.019531 11.46875 L 75.148438 10.753906 L 75.308594 10.042969 L 75.496094 9.335938 L 75.703125 8.636719 L 75.9375 7.949219 L 76.195312 7.265625 Z M 77.472656 8.933594 C 77.480469 8.96875 77.480469 9.007812 77.484375 9.046875 C 77.488281 9.101562 77.535156 9.160156 77.59375 9.15625 C 77.648438 9.15625 77.707031 9.105469 77.703125 9.046875 C 77.695312 9.007812 77.695312 8.96875 77.691406 8.933594 C 77.6875 8.878906 77.640625 8.816406 77.582031 8.824219 C 77.527344 8.824219 77.46875 8.871094 77.472656 8.933594 Z M 76.484375 9.542969 C 76.484375 9.566406 76.488281 9.582031 76.488281 9.605469 C 76.496094 9.660156 76.539062 9.71875 76.597656 9.714844 C 76.652344 9.714844 76.714844 9.664062 76.707031 9.605469 C 76.707031 9.582031 76.703125 9.566406 76.703125 9.542969 C 76.695312 9.488281 76.652344 9.429688 76.59375 9.433594 C 76.539062 9.433594 76.476562 9.484375 76.484375 9.542969 Z M 56.492188 31.15625 C 56.566406 31.152344 56.628906 31.140625 56.703125 31.128906 C 56.628906 31.140625 56.566406 31.144531 56.492188 31.144531 C 56.421875 31.152344 56.359375 31.144531 56.285156 31.144531 C 56.148438 31.140625 56.011719 31.128906 55.875 31.113281 C 55.601562 31.085938 55.328125 31.046875 55.054688 31 C 54.785156 30.953125 54.515625 30.898438 54.246094 30.839844 C 54.183594 30.824219 54.117188 30.8125 54.050781 30.796875 C 53.941406 30.757812 53.828125 30.726562 53.710938 30.703125 C 53.667969 30.691406 53.628906 30.675781 53.589844 30.664062 C 53.609375 30.648438 53.628906 30.636719 53.644531 30.621094 C 54.527344 30.699219 55.410156 30.699219 56.296875 30.621094 L 57.03125 30.546875 L 57.757812 30.441406 L 58.476562 30.304688 L 59.195312 30.140625 L 59.898438 29.945312 L 60.597656 29.714844 L 61.289062 29.457031 L 61.964844 29.171875 L 62.628906 28.855469 L 63.277344 28.511719 L 63.824219 28.1875 C 64.027344 28.691406 64.273438 29.179688 64.546875 29.636719 C 63.261719 30.917969 61.429688 31.390625 59.664062 31.605469 C 58.804688 31.710938 57.921875 31.820312 57.050781 31.800781 C 56.230469 31.785156 55.558594 31.511719 54.84375 31.144531 C 54.761719 31.101562 54.679688 31.0625 54.59375 31.019531 C 54.746094 31.042969 54.890625 31.0625 55.046875 31.082031 C 55.320312 31.113281 55.597656 31.140625 55.871094 31.152344 C 56.007812 31.15625 56.148438 31.164062 56.285156 31.164062 C 56.351562 31.167969 56.421875 31.167969 56.492188 31.15625 Z M 60.945312 30.308594 C 61.195312 30.332031 61.453125 30.308594 61.703125 30.261719 C 61.953125 30.210938 62.195312 30.125 62.429688 30.027344 C 62.664062 29.921875 62.882812 29.796875 63.097656 29.652344 C 63.304688 29.511719 63.5 29.347656 63.683594 29.167969 C 63.472656 29.316406 63.265625 29.453125 63.054688 29.582031 C 62.839844 29.707031 62.617188 29.828125 62.390625 29.925781 C 62.164062 30.03125 61.933594 30.113281 61.691406 30.183594 C 61.441406 30.246094 61.195312 30.28125 60.945312 30.308594 Z M 60.316406 30.605469 C 60.324219 30.601562 60.335938 30.589844 60.34375 30.582031 C 60.457031 30.5 60.347656 30.316406 60.234375 30.390625 C 60.222656 30.398438 60.210938 30.410156 60.207031 30.414062 C 60.097656 30.496094 60.199219 30.679688 60.316406 30.605469 Z M 59.429688 30.660156 C 59.5 30.78125 59.691406 30.671875 59.621094 30.550781 C 59.550781 30.429688 59.359375 30.535156 59.429688 30.660156 Z M 58.296875 30.960938 C 58.367188 31.082031 58.558594 30.972656 58.488281 30.851562 C 58.414062 30.730469 58.226562 30.839844 58.296875 30.960938 Z M 54.199219 25.871094 C 53.234375 25.539062 52.3125 25.019531 51.679688 24.21875 C 52.078125 24.402344 52.488281 24.539062 52.914062 24.625 C 53.175781 24.679688 53.445312 24.71875 53.710938 24.738281 C 53.980469 24.761719 54.246094 24.761719 54.515625 24.734375 C 54.246094 24.746094 53.980469 24.722656 53.71875 24.691406 C 53.453125 24.652344 53.191406 24.597656 52.941406 24.519531 C 52.585938 24.417969 52.234375 24.285156 51.90625 24.117188 C 52.765625 24.21875 53.710938 23.710938 54.429688 23.339844 C 55.707031 22.667969 56.996094 21.847656 58.496094 21.890625 C 60.058594 22.328125 61.652344 22.667969 63.140625 23.324219 C 63.101562 23.675781 63.085938 24.03125 63.085938 24.390625 C 63.085938 24.746094 63.101562 25.09375 63.140625 25.445312 C 61.867188 24.378906 60.398438 23.554688 58.832031 23.023438 C 60.335938 23.601562 61.730469 24.460938 62.921875 25.527344 C 61.03125 24.691406 58.878906 24.515625 56.898438 25.03125 C 58.84375 24.59375 60.917969 24.820312 62.703125 25.652344 C 61.523438 25.53125 60.324219 25.605469 59.179688 25.902344 C 58.664062 26.039062 58.167969 26.222656 57.691406 26.457031 C 57.691406 26.457031 57.6875 26.457031 57.6875 26.457031 C 57.101562 26.578125 56.542969 26.488281 55.96875 26.359375 C 55.363281 26.210938 54.773438 26.066406 54.199219 25.871094 Z M 56.199219 23.5 C 56.351562 23.765625 56.773438 23.527344 56.621094 23.257812 C 56.460938 22.992188 56.039062 23.230469 56.199219 23.5 Z M 52.589844 17.792969 C 52.351562 17.929688 52.121094 18.09375 51.902344 18.261719 C 52.695312 16.808594 54.75 16.605469 56.320312 16.660156 C 56.339844 16.671875 56.363281 16.671875 56.386719 16.660156 C 56.492188 16.667969 56.597656 16.671875 56.695312 16.675781 C 58.625 16.804688 60.515625 17.425781 62.101562 18.535156 C 62.117188 18.546875 62.136719 18.550781 62.15625 18.550781 C 62.792969 19.035156 63.492188 19.414062 64.257812 19.628906 C 64.074219 19.96875 63.917969 20.324219 63.773438 20.683594 C 62.851562 19.917969 61.839844 19.257812 60.769531 18.734375 C 61.835938 19.3125 62.828125 20.011719 63.726562 20.820312 C 63.664062 20.972656 63.617188 21.132812 63.5625 21.285156 C 63.097656 20.984375 62.621094 20.699219 62.128906 20.4375 C 61.796875 20.261719 61.460938 20.09375 61.117188 19.945312 C 60.773438 19.796875 60.425781 19.660156 60.0625 19.5625 C 60.417969 19.679688 60.761719 19.824219 61.101562 19.984375 C 61.441406 20.148438 61.769531 20.324219 62.089844 20.507812 C 62.578125 20.792969 63.054688 21.105469 63.519531 21.425781 C 63.453125 21.640625 63.390625 21.859375 63.34375 22.078125 C 62.527344 21.945312 61.71875 21.765625 60.921875 21.53125 C 59.992188 21.257812 59.078125 20.917969 58.199219 20.507812 C 57.324219 20.09375 56.488281 19.585938 55.585938 19.203125 C 55.136719 19.011719 54.675781 18.859375 54.191406 18.765625 C 53.773438 18.683594 53.339844 18.65625 52.914062 18.671875 C 52.601562 18.480469 52.261719 18.359375 51.925781 18.425781 C 52.152344 18.230469 52.394531 18.042969 52.65625 17.878906 C 53 17.667969 53.378906 17.496094 53.777344 17.414062 C 54.175781 17.328125 54.59375 17.332031 54.992188 17.410156 C 55.394531 17.488281 55.785156 17.628906 56.15625 17.808594 C 55.789062 17.617188 55.40625 17.460938 55 17.371094 C 54.597656 17.277344 54.175781 17.261719 53.761719 17.339844 C 53.34375 17.425781 52.953125 17.585938 52.589844 17.792969 Z M 59.128906 19.1875 C 59.144531 19.242188 59.207031 19.285156 59.261719 19.261719 C 59.289062 19.253906 59.308594 19.246094 59.335938 19.234375 C 59.390625 19.214844 59.433594 19.160156 59.414062 19.105469 C 59.398438 19.050781 59.335938 19.007812 59.28125 19.027344 C 59.253906 19.039062 59.234375 19.042969 59.207031 19.054688 C 59.152344 19.070312 59.105469 19.125 59.128906 19.1875 Z M 58.257812 18.722656 C 58.277344 18.777344 58.335938 18.820312 58.390625 18.796875 C 58.417969 18.789062 58.441406 18.78125 58.46875 18.769531 C 58.523438 18.75 58.566406 18.695312 58.542969 18.640625 C 58.527344 18.585938 58.46875 18.542969 58.414062 18.5625 C 58.386719 18.574219 58.363281 18.578125 58.335938 18.589844 C 58.28125 18.605469 58.238281 18.660156 58.257812 18.722656 Z M 57.210938 18.332031 C 57.253906 18.371094 57.324219 18.382812 57.363281 18.332031 C 57.394531 18.296875 57.40625 18.234375 57.375 18.191406 C 57.402344 18.152344 57.394531 18.085938 57.363281 18.054688 C 57.320312 18.011719 57.253906 18.011719 57.210938 18.054688 C 57.132812 18.125 57.128906 18.261719 57.210938 18.332031 Z M 56.386719 16.453125 C 56.839844 16.46875 57.292969 16.511719 57.746094 16.585938 C 58.96875 16.777344 60.167969 17.175781 61.253906 17.765625 C 60.824219 17.328125 60.429688 16.847656 60.058594 16.355469 C 59.527344 15.648438 58.976562 14.929688 58.554688 14.152344 C 58.25 13.59375 58.09375 13.027344 58.03125 12.417969 C 57.578125 12.136719 56.820312 12.226562 56.242188 12.085938 C 56.25 12.097656 56.257812 12.101562 56.265625 12.113281 C 56.484375 12.371094 56.675781 12.648438 56.867188 12.925781 C 57.050781 13.207031 57.230469 13.484375 57.421875 13.765625 C 57.613281 14.039062 57.8125 14.3125 58.058594 14.539062 C 57.800781 14.320312 57.59375 14.054688 57.390625 13.792969 C 57.1875 13.523438 56.996094 13.25 56.800781 12.980469 C 56.601562 12.714844 56.402344 12.445312 56.175781 12.207031 C 56.113281 12.136719 56.046875 12.070312 55.980469 12.007812 C 55.84375 11.949219 55.730469 11.863281 55.640625 11.742188 C 55.601562 11.71875 55.570312 11.699219 55.53125 11.675781 C 55.554688 12.082031 55.621094 12.484375 55.734375 12.878906 C 55.855469 13.316406 56.03125 13.738281 56.25 14.128906 C 56.464844 14.527344 56.734375 14.902344 57.050781 15.222656 C 57.367188 15.550781 57.734375 15.835938 58.144531 16.039062 C 57.730469 15.847656 57.351562 15.574219 57.023438 15.257812 C 56.695312 14.933594 56.414062 14.566406 56.175781 14.175781 C 55.941406 13.78125 55.75 13.355469 55.613281 12.917969 C 55.492188 12.539062 55.410156 12.152344 55.378906 11.757812 C 55.035156 12.464844 55.171875 13.402344 55.246094 14.148438 C 55.328125 15.03125 55.601562 15.90625 56.386719 16.453125 Z M 57.90625 10.308594 C 57.90625 10.308594 57.898438 10.308594 57.898438 10.304688 C 57.898438 10.308594 57.90625 10.308594 57.90625 10.316406 Z M 67.109375 32.496094 C 66.878906 32.320312 66.660156 32.140625 66.449219 31.949219 C 65.914062 32.589844 65.339844 33.195312 64.730469 33.757812 C 64.015625 34.421875 63.253906 35.039062 62.445312 35.585938 C 61.636719 36.125 60.773438 36.585938 59.992188 37.160156 C 59.605469 37.449219 59.234375 37.765625 58.910156 38.125 C 58.625 38.445312 58.378906 38.796875 58.175781 39.171875 C 58.394531 39.050781 58.636719 38.960938 58.855469 38.898438 C 60.6875 38.335938 62.140625 37.191406 63.496094 35.867188 C 64.671875 34.714844 65.78125 33.484375 67.109375 32.496094 Z M 57.964844 35.050781 C 58.203125 34.660156 58.472656 34.289062 58.757812 33.9375 C 59.539062 32.972656 60.480469 32.140625 61.535156 31.492188 C 60.9375 31.644531 60.324219 31.746094 59.714844 31.824219 C 58.839844 31.933594 57.9375 32.046875 57.050781 32.027344 C 56.417969 32.011719 55.847656 31.863281 55.292969 31.609375 C 54.820312 31.863281 54.519531 32.5625 54.105469 32.992188 C 54.117188 32.992188 54.128906 32.988281 54.136719 32.988281 C 54.472656 32.929688 54.804688 32.902344 55.144531 32.875 C 55.476562 32.851562 55.8125 32.835938 56.144531 32.808594 C 56.476562 32.78125 56.8125 32.746094 57.132812 32.644531 C 56.816406 32.757812 56.484375 32.800781 56.148438 32.847656 C 55.816406 32.890625 55.484375 32.917969 55.148438 32.957031 C 54.816406 32.992188 54.488281 33.039062 54.160156 33.109375 C 54.066406 33.128906 53.980469 33.152344 53.890625 33.179688 C 53.773438 33.265625 53.640625 33.320312 53.488281 33.339844 C 53.449219 33.359375 53.410156 33.382812 53.378906 33.402344 C 53.738281 33.589844 54.121094 33.730469 54.519531 33.832031 C 54.957031 33.9375 55.410156 34 55.867188 34.011719 C 56.320312 34.015625 56.773438 33.972656 57.214844 33.863281 C 57.660156 33.753906 58.085938 33.578125 58.46875 33.320312 C 58.09375 33.585938 57.667969 33.777344 57.226562 33.902344 C 56.785156 34.027344 56.324219 34.085938 55.867188 34.09375 C 55.40625 34.097656 54.941406 34.046875 54.492188 33.949219 C 54.109375 33.863281 53.734375 33.742188 53.371094 33.574219 C 53.808594 34.222656 54.691406 34.578125 55.375 34.878906 C 56.203125 35.25 57.101562 35.453125 57.964844 35.050781 Z M 58.886719 38.117188 C 58.609375 38.4375 58.363281 38.796875 58.167969 39.175781 C 57.851562 39.351562 57.570312 39.585938 57.457031 39.914062 C 57.402344 39.613281 57.359375 39.3125 57.351562 39.007812 C 57.339844 38.601562 57.386719 38.191406 57.511719 37.804688 C 57.636719 37.414062 57.84375 37.0625 58.113281 36.75 C 58.378906 36.4375 58.695312 36.175781 59.042969 35.941406 C 58.691406 36.164062 58.363281 36.414062 58.085938 36.722656 C 57.804688 37.027344 57.578125 37.382812 57.433594 37.777344 C 57.292969 38.171875 57.230469 38.589844 57.230469 39.007812 C 57.230469 39.285156 57.253906 39.5625 57.296875 39.835938 C 56.433594 38.425781 57.285156 36.542969 58.117188 35.214844 C 58.140625 35.195312 58.148438 35.179688 58.148438 35.160156 C 58.210938 35.066406 58.265625 34.976562 58.320312 34.894531 C 59.390625 33.289062 60.878906 31.964844 62.632812 31.140625 C 62.65625 31.128906 62.664062 31.117188 62.675781 31.101562 C 63.410156 30.796875 64.09375 30.375 64.660156 29.824219 C 64.867188 30.152344 65.09375 30.46875 65.339844 30.769531 C 64.210938 31.183594 63.136719 31.730469 62.140625 32.398438 C 63.171875 31.765625 64.285156 31.253906 65.429688 30.882812 C 65.535156 31.007812 65.644531 31.136719 65.753906 31.253906 C 65.257812 31.507812 64.769531 31.78125 64.300781 32.070312 C 63.984375 32.265625 63.664062 32.472656 63.363281 32.699219 C 63.0625 32.921875 62.773438 33.15625 62.5 33.421875 C 62.78125 33.167969 63.082031 32.945312 63.386719 32.730469 C 63.691406 32.519531 64.015625 32.320312 64.339844 32.136719 C 64.828125 31.855469 65.339844 31.601562 65.851562 31.359375 C 66.003906 31.523438 66.164062 31.683594 66.328125 31.835938 C 65.804688 32.480469 65.238281 33.085938 64.644531 33.660156 C 63.945312 34.328125 63.195312 34.949219 62.398438 35.507812 C 61.597656 36.058594 60.742188 36.53125 59.964844 37.117188 C 59.578125 37.421875 59.207031 37.742188 58.886719 38.117188 Z M 61.703125 34.042969 C 61.757812 34.054688 61.828125 34.027344 61.835938 33.964844 C 61.839844 33.9375 61.84375 33.910156 61.851562 33.882812 C 61.863281 33.832031 61.835938 33.765625 61.773438 33.753906 C 61.71875 33.742188 61.648438 33.769531 61.644531 33.832031 C 61.636719 33.859375 61.632812 33.882812 61.625 33.910156 C 61.617188 33.964844 61.644531 34.027344 61.703125 34.042969 Z M 60.863281 34.5625 C 60.917969 34.574219 60.988281 34.546875 60.992188 34.484375 C 61 34.457031 61.003906 34.429688 61.007812 34.402344 C 61.019531 34.347656 60.992188 34.285156 60.933594 34.273438 C 60.878906 34.261719 60.808594 34.289062 60.800781 34.347656 C 60.796875 34.375 60.789062 34.402344 60.785156 34.429688 C 60.773438 34.484375 60.800781 34.546875 60.863281 34.5625 Z M 59.761719 35.136719 C 59.785156 35.242188 59.90625 35.3125 60.003906 35.277344 C 60.058594 35.261719 60.101562 35.203125 60.078125 35.148438 C 60.0625 35.097656 60.015625 35.058594 59.964844 35.066406 C 59.941406 35.023438 59.886719 34.996094 59.839844 35.003906 C 59.785156 35.023438 59.75 35.078125 59.761719 35.136719 Z M 62.453125 8.597656 C 62.261719 7.597656 62.246094 6.539062 62.621094 5.585938 C 62.660156 6.023438 62.753906 6.449219 62.882812 6.859375 C 62.964844 7.117188 63.0625 7.367188 63.183594 7.609375 C 63.300781 7.851562 63.4375 8.085938 63.59375 8.296875 C 63.453125 8.074219 63.335938 7.832031 63.238281 7.585938 C 63.140625 7.339844 63.058594 7.089844 62.992188 6.832031 C 62.90625 6.472656 62.847656 6.105469 62.828125 5.734375 C 63.167969 6.527344 64.082031 7.09375 64.757812 7.527344 C 65.976562 8.296875 67.339844 9.003906 68.042969 10.324219 C 68.449219 11.898438 68.953125 13.445312 69.125 15.066406 C 68.476562 15.355469 67.859375 15.714844 67.289062 16.128906 C 67.578125 14.492188 67.558594 12.800781 67.234375 11.183594 C 67.480469 12.78125 67.4375 14.410156 67.109375 15.976562 C 66.886719 13.921875 65.960938 11.964844 64.53125 10.511719 C 65.878906 11.976562 66.714844 13.890625 66.894531 15.847656 C 66.410156 14.765625 65.753906 13.757812 64.917969 12.917969 C 64.546875 12.539062 64.136719 12.199219 63.691406 11.90625 C 63.691406 11.90625 63.691406 11.90625 63.6875 11.898438 C 63.289062 11.457031 63.085938 10.925781 62.917969 10.363281 C 62.738281 9.777344 62.566406 9.195312 62.453125 8.597656 Z M 65.921875 9.390625 C 66.078125 9.125 65.660156 8.878906 65.503906 9.152344 C 65.347656 9.417969 65.765625 9.660156 65.921875 9.390625 Z M 69.339844 14.976562 C 69.601562 14.867188 69.871094 14.769531 70.144531 14.675781 C 69.859375 13.894531 69.625 13.097656 69.4375 12.289062 C 69.21875 11.335938 69.070312 10.371094 69 9.398438 C 68.933594 8.421875 68.972656 7.449219 68.863281 6.484375 C 68.808594 6.003906 68.722656 5.519531 68.5625 5.0625 C 68.433594 4.65625 68.246094 4.269531 68.027344 3.902344 C 68.023438 4.148438 67.976562 4.402344 67.921875 4.628906 C 67.496094 6.5 67.761719 8.332031 68.230469 10.167969 C 68.640625 11.757812 69.148438 13.335938 69.339844 14.976562 Z M 58.019531 10.597656 C 58.007812 10.554688 58.003906 10.515625 57.992188 10.472656 C 58.015625 10.480469 58.035156 10.488281 58.058594 10.5 C 58.433594 11.296875 58.878906 12.070312 59.378906 12.796875 L 59.8125 13.390625 L 60.265625 13.972656 L 60.746094 14.527344 L 61.25 15.066406 L 61.773438 15.578125 L 62.320312 16.070312 L 62.890625 16.539062 L 63.472656 16.984375 L 64.082031 17.398438 L 64.703125 17.785156 L 65.261719 18.097656 C 64.929688 18.523438 64.628906 18.972656 64.367188 19.449219 C 62.617188 18.972656 61.289062 17.628906 60.222656 16.207031 C 59.703125 15.511719 59.160156 14.800781 58.746094 14.042969 C 58.351562 13.320312 58.253906 12.605469 58.210938 11.800781 C 58.203125 11.707031 58.199219 11.617188 58.195312 11.523438 C 58.25 11.664062 58.308594 11.808594 58.367188 11.945312 C 58.476562 12.195312 58.59375 12.453125 58.71875 12.699219 C 58.777344 12.824219 58.84375 12.945312 58.914062 13.0625 C 58.953125 13.125 58.988281 13.183594 59.023438 13.238281 C 59.0625 13.300781 59.105469 13.347656 59.152344 13.402344 C 59.105469 13.347656 59.070312 13.292969 59.03125 13.234375 C 58.992188 13.171875 58.960938 13.113281 58.925781 13.054688 C 58.859375 12.933594 58.800781 12.808594 58.746094 12.683594 C 58.632812 12.429688 58.53125 12.171875 58.433594 11.917969 C 58.339844 11.660156 58.25 11.398438 58.167969 11.136719 C 58.144531 11.070312 58.128906 11.007812 58.105469 10.945312 C 58.089844 10.824219 58.058594 10.707031 58.019531 10.597656 Z M 61.976562 16.660156 C 62.085938 16.890625 62.234375 17.097656 62.398438 17.296875 C 62.566406 17.488281 62.757812 17.65625 62.964844 17.804688 C 63.171875 17.949219 63.390625 18.082031 63.621094 18.191406 C 63.851562 18.300781 64.085938 18.394531 64.332031 18.453125 C 64.101562 18.351562 63.878906 18.234375 63.660156 18.113281 C 63.441406 17.996094 63.226562 17.859375 63.03125 17.714844 C 62.828125 17.570312 62.636719 17.410156 62.464844 17.234375 C 62.289062 17.054688 62.125 16.863281 61.976562 16.660156 Z M 61.414062 16.265625 C 61.425781 16.273438 61.433594 16.277344 61.445312 16.285156 C 61.570312 16.34375 61.679688 16.152344 61.554688 16.09375 C 61.542969 16.085938 61.535156 16.082031 61.523438 16.074219 C 61.398438 16.015625 61.28125 16.207031 61.414062 16.265625 Z M 61.109375 15.632812 C 61.179688 15.511719 60.988281 15.402344 60.917969 15.523438 C 60.851562 15.648438 61.042969 15.757812 61.109375 15.632812 Z M 60.28125 14.800781 C 60.351562 14.683594 60.160156 14.574219 60.089844 14.691406 C 60.019531 14.820312 60.210938 14.929688 60.28125 14.800781 Z M 60.550781 12.058594 C 60.835938 12.265625 61.117188 12.480469 61.402344 12.683594 C 61.125 12.46875 60.851562 12.246094 60.570312 12.027344 C 60.296875 11.808594 60.019531 11.589844 59.734375 11.375 C 59.453125 11.160156 59.167969 10.960938 58.867188 10.769531 C 58.75 10.699219 58.632812 10.625 58.511719 10.554688 C 59.742188 10.960938 61.113281 10.949219 62.320312 11.429688 C 63.863281 12.042969 65.101562 13.238281 65.984375 14.621094 C 66.34375 15.191406 66.648438 15.796875 66.894531 16.425781 C 66.550781 16.703125 66.222656 17.003906 65.914062 17.324219 C 65.820312 17.164062 65.726562 17.003906 65.621094 16.847656 C 65.507812 16.667969 65.375 16.496094 65.238281 16.328125 C 65.101562 16.164062 64.957031 16.003906 64.808594 15.859375 C 64.507812 15.558594 64.183594 15.277344 63.867188 14.992188 L 62.917969 14.148438 L 63.839844 15.019531 C 64.148438 15.316406 64.457031 15.601562 64.746094 15.914062 C 64.890625 16.066406 65.03125 16.222656 65.15625 16.394531 C 65.289062 16.558594 65.402344 16.730469 65.511719 16.914062 C 65.617188 17.082031 65.714844 17.25 65.808594 17.433594 C 65.621094 17.632812 65.441406 17.839844 65.273438 18.054688 C 64.671875 17.6875 64.09375 17.296875 63.535156 16.867188 L 62.960938 16.414062 L 62.402344 15.945312 L 61.867188 15.453125 L 61.347656 14.9375 L 60.84375 14.410156 L 60.363281 13.863281 L 59.90625 13.300781 L 59.46875 12.71875 C 58.953125 12.015625 58.488281 11.277344 58.070312 10.507812 C 58.3125 10.605469 58.554688 10.734375 58.789062 10.867188 C 59.089844 11.042969 59.386719 11.238281 59.675781 11.433594 C 59.980469 11.644531 60.265625 11.851562 60.550781 12.058594 Z M 62.191406 14.027344 C 62.171875 14.019531 62.15625 14.011719 62.136719 14.003906 C 62.085938 13.984375 62.015625 13.988281 61.988281 14.042969 C 61.960938 14.09375 61.972656 14.167969 62.027344 14.191406 C 62.042969 14.195312 62.058594 14.207031 62.082031 14.210938 C 62.128906 14.234375 62.199219 14.230469 62.226562 14.175781 C 62.253906 14.125 62.246094 14.054688 62.191406 14.027344 Z M 61.992188 13.027344 C 62.027344 13.042969 62.0625 13.058594 62.097656 13.074219 C 62.144531 13.097656 62.21875 13.089844 62.246094 13.035156 C 62.273438 12.988281 62.261719 12.910156 62.207031 12.890625 C 62.171875 12.871094 62.136719 12.855469 62.101562 12.839844 C 62.054688 12.816406 61.980469 12.824219 61.953125 12.878906 C 61.925781 12.925781 61.9375 13 61.992188 13.027344 Z M 77.222656 33.792969 C 76.960938 33.902344 76.691406 34 76.417969 34.09375 C 76.703125 34.875 76.9375 35.671875 77.125 36.480469 C 77.34375 37.433594 77.488281 38.398438 77.5625 39.371094 C 77.625 40.347656 77.585938 41.320312 77.695312 42.285156 C 77.75 42.765625 77.839844 43.25 77.996094 43.707031 C 78.128906 44.113281 78.316406 44.5 78.535156 44.867188 C 78.539062 44.621094 78.582031 44.367188 78.636719 44.140625 C 79.0625 42.269531 78.800781 40.4375 78.332031 38.601562 C 77.921875 37.007812 77.414062 35.433594 77.222656 33.792969 Z M 86.011719 36.710938 C 85.726562 36.503906 85.441406 36.289062 85.160156 36.085938 C 85.4375 36.300781 85.710938 36.523438 85.988281 36.742188 C 86.261719 36.960938 86.542969 37.179688 86.824219 37.394531 C 87.109375 37.605469 87.394531 37.808594 87.695312 38 C 87.808594 38.070312 87.929688 38.144531 88.050781 38.214844 C 86.820312 37.808594 85.449219 37.820312 84.238281 37.339844 C 82.699219 36.726562 81.457031 35.53125 80.578125 34.148438 C 80.21875 33.578125 79.910156 32.972656 79.664062 32.34375 C 80.007812 32.066406 80.335938 31.765625 80.648438 31.445312 C 80.742188 31.605469 80.835938 31.765625 80.9375 31.921875 C 81.054688 32.101562 81.183594 32.273438 81.320312 32.441406 C 81.457031 32.605469 81.605469 32.765625 81.753906 32.910156 C 82.054688 33.210938 82.375 33.492188 82.691406 33.777344 L 83.644531 34.621094 L 82.71875 33.75 C 82.414062 33.453125 82.101562 33.167969 81.8125 32.855469 C 81.671875 32.703125 81.527344 32.546875 81.402344 32.375 C 81.273438 32.210938 81.15625 32.039062 81.046875 31.855469 C 80.945312 31.6875 80.84375 31.519531 80.753906 31.335938 C 80.9375 31.136719 81.117188 30.925781 81.289062 30.714844 C 81.890625 31.082031 82.46875 31.472656 83.027344 31.902344 L 83.601562 32.355469 L 84.15625 32.824219 L 84.695312 33.316406 L 85.214844 33.832031 L 85.714844 34.359375 L 86.195312 34.90625 L 86.65625 35.46875 L 87.09375 36.050781 C 87.605469 36.753906 88.070312 37.492188 88.492188 38.261719 C 88.246094 38.164062 88.007812 38.035156 87.769531 37.902344 C 87.46875 37.726562 87.175781 37.53125 86.886719 37.332031 C 86.578125 37.125 86.296875 36.917969 86.011719 36.710938 Z M 84.371094 34.742188 C 84.386719 34.75 84.402344 34.757812 84.425781 34.765625 C 84.476562 34.785156 84.546875 34.78125 84.574219 34.726562 C 84.601562 34.675781 84.589844 34.601562 84.535156 34.578125 C 84.519531 34.574219 84.503906 34.5625 84.480469 34.558594 C 84.429688 34.535156 84.359375 34.539062 84.332031 34.59375 C 84.304688 34.640625 84.316406 34.714844 84.371094 34.742188 Z M 84.566406 35.738281 C 84.535156 35.722656 84.496094 35.703125 84.464844 35.6875 C 84.414062 35.667969 84.34375 35.671875 84.316406 35.726562 C 84.289062 35.777344 84.300781 35.851562 84.355469 35.875 C 84.386719 35.890625 84.425781 35.90625 84.457031 35.921875 C 84.507812 35.945312 84.578125 35.941406 84.605469 35.886719 C 84.632812 35.839844 84.621094 35.765625 84.566406 35.738281 Z M 84.109375 40.164062 C 84.300781 41.164062 84.316406 42.226562 83.941406 43.175781 C 83.902344 42.738281 83.808594 42.3125 83.675781 41.902344 C 83.59375 41.648438 83.496094 41.394531 83.375 41.15625 C 83.261719 40.914062 83.125 40.679688 82.964844 40.464844 C 83.109375 40.691406 83.222656 40.929688 83.320312 41.175781 C 83.421875 41.421875 83.503906 41.675781 83.566406 41.929688 C 83.65625 42.292969 83.714844 42.65625 83.730469 43.03125 C 83.394531 42.238281 82.480469 41.667969 81.800781 41.238281 C 80.582031 40.464844 79.222656 39.761719 78.515625 38.4375 C 78.113281 36.863281 77.609375 35.316406 77.433594 33.699219 C 78.085938 33.410156 78.703125 33.046875 79.269531 32.632812 C 78.980469 34.273438 79.003906 35.960938 79.324219 37.578125 C 79.082031 35.984375 79.125 34.355469 79.453125 32.785156 C 79.675781 34.839844 80.601562 36.796875 82.03125 38.253906 C 80.683594 36.789062 79.84375 34.875 79.664062 32.917969 C 80.152344 34 80.808594 35.003906 81.644531 35.847656 C 82.015625 36.222656 82.425781 36.5625 82.867188 36.859375 C 82.867188 36.859375 82.867188 36.859375 82.875 36.863281 C 83.273438 37.304688 83.476562 37.835938 83.644531 38.398438 C 83.824219 38.984375 83.996094 39.570312 84.109375 40.164062 Z M 80.636719 39.378906 C 80.484375 39.644531 80.898438 39.890625 81.058594 39.617188 C 81.210938 39.351562 80.796875 39.109375 80.636719 39.378906 Z M 70.160156 5.066406 C 70.296875 5.457031 70.363281 5.867188 70.394531 6.273438 C 70.378906 5.867188 70.324219 5.449219 70.199219 5.054688 C 70.070312 4.664062 69.875 4.285156 69.605469 3.964844 C 69.339844 3.640625 69.007812 3.378906 68.644531 3.171875 C 68.40625 3.027344 68.148438 2.914062 67.890625 2.808594 C 69.546875 2.773438 70.75 4.449219 71.480469 5.832031 C 71.488281 5.855469 71.5 5.875 71.507812 5.886719 C 71.558594 5.980469 71.609375 6.074219 71.652344 6.167969 C 72.511719 7.898438 72.910156 9.851562 72.746094 11.78125 C 72.746094 11.800781 72.746094 11.816406 72.753906 11.835938 C 72.652344 12.621094 72.675781 13.417969 72.871094 14.191406 C 72.484375 14.207031 72.09375 14.246094 71.71875 14.300781 C 71.917969 13.117188 71.984375 11.910156 71.902344 10.71875 C 71.9375 11.933594 71.828125 13.140625 71.570312 14.320312 C 71.40625 14.347656 71.246094 14.382812 71.082031 14.414062 C 71.109375 13.863281 71.121094 13.304688 71.105469 12.753906 C 71.09375 12.375 71.066406 12.003906 71.023438 11.632812 C 70.980469 11.261719 70.917969 10.890625 70.828125 10.523438 C 70.902344 10.890625 70.953125 11.261719 70.980469 11.632812 C 71.007812 12.003906 71.019531 12.382812 71.019531 12.753906 C 71.011719 13.316406 70.984375 13.882812 70.9375 14.445312 C 70.71875 14.496094 70.5 14.554688 70.285156 14.621094 C 69.988281 13.851562 69.742188 13.058594 69.546875 12.253906 C 69.316406 11.316406 69.152344 10.351562 69.070312 9.386719 C 68.996094 8.417969 69.015625 7.441406 68.898438 6.472656 C 68.835938 5.992188 68.738281 5.511719 68.578125 5.046875 C 68.4375 4.640625 68.25 4.253906 68.023438 3.890625 C 68.03125 3.53125 67.96875 3.175781 67.738281 2.910156 C 68.027344 3.007812 68.304688 3.125 68.574219 3.269531 C 68.933594 3.460938 69.261719 3.707031 69.535156 4.007812 C 69.816406 4.320312 70.023438 4.679688 70.160156 5.066406 Z M 70.925781 9.578125 C 70.902344 9.558594 70.882812 9.542969 70.859375 9.523438 C 70.816406 9.484375 70.746094 9.480469 70.707031 9.523438 C 70.667969 9.558594 70.65625 9.636719 70.707031 9.675781 C 70.726562 9.691406 70.75 9.707031 70.773438 9.730469 C 70.816406 9.769531 70.886719 9.773438 70.925781 9.730469 C 70.957031 9.691406 70.96875 9.621094 70.925781 9.578125 Z M 70.832031 8.539062 C 70.789062 8.5 70.71875 8.496094 70.679688 8.539062 C 70.640625 8.578125 70.628906 8.652344 70.679688 8.691406 C 70.699219 8.707031 70.722656 8.722656 70.738281 8.746094 C 70.78125 8.785156 70.855469 8.789062 70.890625 8.746094 C 70.929688 8.707031 70.941406 8.632812 70.890625 8.59375 C 70.871094 8.578125 70.847656 8.558594 70.832031 8.539062 Z M 70.558594 7.578125 C 70.609375 7.585938 70.667969 7.566406 70.691406 7.515625 C 70.738281 7.523438 70.792969 7.484375 70.804688 7.433594 C 70.820312 7.375 70.789062 7.320312 70.726562 7.296875 C 70.628906 7.265625 70.503906 7.332031 70.488281 7.441406 C 70.472656 7.5 70.5 7.558594 70.558594 7.578125 Z M 88.542969 38.171875 C 88.554688 38.214844 88.558594 38.253906 88.570312 38.296875 C 88.546875 38.289062 88.527344 38.28125 88.503906 38.269531 C 88.125 37.46875 87.683594 36.699219 87.179688 35.972656 L 86.75 35.378906 L 86.296875 34.796875 L 85.8125 34.238281 L 85.3125 33.703125 L 84.785156 33.191406 L 84.238281 32.699219 L 83.671875 32.230469 L 83.085938 31.785156 L 82.480469 31.371094 L 81.855469 30.980469 L 81.300781 30.671875 C 81.632812 30.246094 81.933594 29.796875 82.195312 29.320312 C 83.945312 29.796875 85.273438 31.140625 86.339844 32.5625 C 86.859375 33.257812 87.398438 33.964844 87.816406 34.726562 C 88.207031 35.449219 88.308594 36.164062 88.351562 36.96875 C 88.355469 37.0625 88.363281 37.152344 88.367188 37.246094 C 88.3125 37.105469 88.253906 36.960938 88.191406 36.824219 C 88.082031 36.574219 87.96875 36.316406 87.84375 36.070312 C 87.78125 35.945312 87.714844 35.824219 87.644531 35.703125 C 87.605469 35.644531 87.574219 35.585938 87.535156 35.53125 C 87.496094 35.46875 87.453125 35.421875 87.410156 35.367188 C 87.453125 35.421875 87.492188 35.476562 87.53125 35.535156 C 87.570312 35.59375 87.601562 35.65625 87.632812 35.714844 C 87.699219 35.835938 87.761719 35.960938 87.816406 36.085938 C 87.929688 36.339844 88.027344 36.597656 88.125 36.851562 C 88.21875 37.109375 88.3125 37.371094 88.394531 37.632812 C 88.417969 37.699219 88.433594 37.761719 88.453125 37.824219 C 88.472656 37.945312 88.503906 38.054688 88.542969 38.171875 Z M 84.585938 32.109375 C 84.476562 31.878906 84.328125 31.671875 84.164062 31.472656 C 83.996094 31.28125 83.804688 31.113281 83.59375 30.964844 C 83.386719 30.816406 83.167969 30.6875 82.9375 30.578125 C 82.710938 30.46875 82.472656 30.375 82.230469 30.316406 C 82.457031 30.417969 82.683594 30.535156 82.902344 30.652344 C 83.121094 30.773438 83.332031 30.910156 83.53125 31.054688 C 83.730469 31.199219 83.921875 31.359375 84.097656 31.535156 C 84.273438 31.710938 84.4375 31.902344 84.585938 32.109375 Z M 85.148438 32.5 C 85.136719 32.496094 85.125 32.492188 85.113281 32.484375 C 84.988281 32.425781 84.878906 32.617188 85.003906 32.675781 C 85.015625 32.683594 85.027344 32.6875 85.039062 32.691406 C 85.164062 32.746094 85.277344 32.5625 85.148438 32.5 Z M 85.453125 33.128906 C 85.382812 33.25 85.574219 33.359375 85.644531 33.238281 C 85.710938 33.121094 85.519531 33.011719 85.453125 33.128906 Z M 86.277344 33.960938 C 86.207031 34.082031 86.398438 34.191406 86.46875 34.070312 C 86.542969 33.949219 86.351562 33.839844 86.277344 33.960938 Z M 90.175781 32.316406 C 89.722656 32.300781 89.269531 32.253906 88.816406 32.183594 C 87.589844 31.992188 86.394531 31.59375 85.304688 31.003906 C 85.738281 31.441406 86.132812 31.921875 86.503906 32.414062 C 87.035156 33.121094 87.585938 33.839844 88.007812 34.617188 C 88.3125 35.175781 88.464844 35.742188 88.53125 36.351562 C 88.984375 36.632812 89.738281 36.542969 90.320312 36.683594 C 90.3125 36.671875 90.300781 36.667969 90.296875 36.65625 C 90.078125 36.398438 89.886719 36.121094 89.695312 35.839844 C 89.507812 35.5625 89.328125 35.285156 89.136719 35.003906 C 88.945312 34.730469 88.75 34.457031 88.503906 34.230469 C 88.761719 34.449219 88.96875 34.714844 89.171875 34.976562 C 89.371094 35.246094 89.5625 35.519531 89.761719 35.785156 C 89.957031 36.054688 90.160156 36.324219 90.382812 36.5625 C 90.449219 36.632812 90.515625 36.699219 90.582031 36.761719 C 90.71875 36.820312 90.832031 36.90625 90.917969 37.027344 C 90.957031 37.050781 90.992188 37.070312 91.027344 37.09375 C 91.007812 36.6875 90.941406 36.285156 90.828125 35.890625 C 90.707031 35.453125 90.53125 35.03125 90.3125 34.640625 C 90.09375 34.238281 89.828125 33.867188 89.507812 33.546875 C 89.191406 33.21875 88.828125 32.933594 88.417969 32.730469 C 88.832031 32.921875 89.207031 33.195312 89.535156 33.511719 C 89.863281 33.835938 90.148438 34.203125 90.382812 34.59375 C 90.617188 34.988281 90.808594 35.414062 90.945312 35.851562 C 91.066406 36.230469 91.148438 36.617188 91.183594 37.011719 C 91.527344 36.304688 91.390625 35.367188 91.3125 34.621094 C 91.230469 33.738281 90.957031 32.855469 90.175781 32.316406 Z M 76.402344 43.703125 C 76.265625 43.3125 76.199219 42.902344 76.167969 42.492188 C 76.183594 42.902344 76.238281 43.320312 76.363281 43.710938 C 76.488281 44.105469 76.6875 44.484375 76.953125 44.804688 C 77.222656 45.128906 77.554688 45.390625 77.914062 45.597656 C 78.15625 45.742188 78.414062 45.855469 78.671875 45.960938 C 77.015625 46.003906 75.8125 44.320312 75.078125 42.9375 C 75.074219 42.914062 75.0625 42.894531 75.050781 42.882812 C 75.003906 42.789062 74.953125 42.695312 74.910156 42.601562 C 74.050781 40.871094 73.652344 38.917969 73.816406 36.988281 C 73.816406 36.96875 73.816406 36.953125 73.804688 36.933594 C 73.910156 36.148438 73.886719 35.351562 73.691406 34.578125 C 74.078125 34.5625 74.464844 34.523438 74.84375 34.46875 C 74.640625 35.648438 74.574219 36.859375 74.65625 38.050781 C 74.625 36.835938 74.734375 35.628906 74.992188 34.449219 C 75.15625 34.421875 75.3125 34.386719 75.476562 34.355469 C 75.449219 34.90625 75.441406 35.464844 75.457031 36.015625 C 75.46875 36.394531 75.496094 36.765625 75.539062 37.136719 C 75.582031 37.507812 75.640625 37.878906 75.734375 38.246094 C 75.660156 37.878906 75.609375 37.507812 75.582031 37.136719 C 75.554688 36.765625 75.542969 36.386719 75.542969 36.015625 C 75.550781 35.453125 75.578125 34.886719 75.625 34.320312 C 75.84375 34.273438 76.0625 34.210938 76.277344 34.148438 C 76.570312 34.917969 76.816406 35.710938 77.015625 36.515625 C 77.242188 37.453125 77.40625 38.417969 77.488281 39.382812 C 77.566406 40.351562 77.542969 41.328125 77.664062 42.296875 C 77.722656 42.777344 77.824219 43.257812 77.980469 43.722656 C 78.125 44.128906 78.308594 44.515625 78.539062 44.878906 C 78.527344 45.238281 78.59375 45.59375 78.824219 45.859375 C 78.535156 45.761719 78.253906 45.640625 77.988281 45.5 C 77.625 45.308594 77.296875 45.0625 77.023438 44.761719 C 76.746094 44.449219 76.539062 44.089844 76.402344 43.703125 Z M 75.636719 39.1875 C 75.660156 39.203125 75.679688 39.21875 75.703125 39.242188 C 75.746094 39.28125 75.816406 39.285156 75.855469 39.242188 C 75.894531 39.203125 75.90625 39.125 75.855469 39.089844 C 75.832031 39.070312 75.8125 39.054688 75.789062 39.035156 C 75.746094 38.996094 75.675781 38.988281 75.636719 39.035156 C 75.605469 39.070312 75.59375 39.148438 75.636719 39.1875 Z M 75.730469 40.226562 C 75.773438 40.265625 75.84375 40.269531 75.882812 40.226562 C 75.921875 40.1875 75.933594 40.109375 75.882812 40.074219 C 75.859375 40.054688 75.839844 40.039062 75.816406 40.019531 C 75.773438 39.980469 75.703125 39.972656 75.664062 40.019531 C 75.625 40.054688 75.613281 40.132812 75.664062 40.171875 C 75.691406 40.191406 75.714844 40.210938 75.730469 40.226562 Z M 76.003906 41.191406 C 75.953125 41.183594 75.894531 41.203125 75.871094 41.253906 C 75.824219 41.246094 75.769531 41.285156 75.757812 41.335938 C 75.742188 41.394531 75.773438 41.449219 75.832031 41.472656 C 75.933594 41.503906 76.058594 41.4375 76.074219 41.328125 C 76.089844 41.269531 76.0625 41.203125 76.003906 41.191406 Z M 70.078125 42.160156 C 69.722656 42.957031 69.316406 43.734375 68.863281 44.476562 C 68.824219 44.214844 68.816406 43.941406 68.816406 43.675781 C 68.816406 43.324219 68.835938 42.976562 68.863281 42.625 C 68.890625 42.273438 68.929688 41.925781 68.96875 41.574219 C 69.007812 41.226562 69.050781 40.875 69.082031 40.527344 C 69.035156 40.875 68.980469 41.226562 68.929688 41.570312 C 68.875 41.921875 68.824219 42.269531 68.78125 42.621094 C 68.738281 42.96875 68.707031 43.324219 68.6875 43.675781 C 68.683594 43.8125 68.679688 43.949219 68.683594 44.085938 C 68.421875 42.816406 67.722656 41.636719 67.535156 40.347656 C 67.296875 38.707031 67.710938 37.035156 68.46875 35.574219 C 68.78125 34.976562 69.152344 34.414062 69.574219 33.882812 C 69.984375 34.042969 70.410156 34.179688 70.84375 34.289062 C 70.75 34.449219 70.664062 34.605469 70.582031 34.777344 C 70.480469 34.96875 70.398438 35.164062 70.324219 35.367188 C 70.246094 35.566406 70.1875 35.769531 70.132812 35.976562 C 70.023438 36.386719 69.941406 36.808594 69.851562 37.222656 L 69.597656 38.472656 L 69.898438 37.234375 C 69.996094 36.824219 70.09375 36.410156 70.214844 36.003906 C 70.273438 35.804688 70.34375 35.605469 70.421875 35.410156 C 70.503906 35.214844 70.589844 35.027344 70.695312 34.839844 C 70.789062 34.671875 70.886719 34.503906 70.992188 34.332031 C 71.257812 34.394531 71.527344 34.449219 71.804688 34.484375 C 71.789062 35.1875 71.734375 35.886719 71.644531 36.574219 L 71.542969 37.296875 L 71.410156 38.011719 L 71.253906 38.722656 L 71.066406 39.425781 L 70.859375 40.128906 L 70.625 40.816406 L 70.367188 41.5 Z M 69.089844 39.835938 C 69.082031 39.800781 69.082031 39.761719 69.078125 39.722656 C 69.070312 39.667969 69.027344 39.609375 68.96875 39.613281 C 68.914062 39.613281 68.851562 39.664062 68.859375 39.722656 C 68.863281 39.761719 68.863281 39.800781 68.871094 39.835938 C 68.875 39.890625 68.917969 39.953125 68.980469 39.945312 C 69.035156 39.941406 69.09375 39.898438 69.089844 39.835938 Z M 70.078125 39.226562 C 70.078125 39.203125 70.070312 39.1875 70.070312 39.164062 C 70.066406 39.109375 70.023438 39.050781 69.960938 39.054688 C 69.90625 39.054688 69.847656 39.105469 69.851562 39.164062 C 69.851562 39.1875 69.859375 39.203125 69.859375 39.226562 C 69.863281 39.28125 69.90625 39.339844 69.96875 39.335938 C 70.023438 39.328125 70.082031 39.285156 70.078125 39.226562 Z M 69.917969 43.734375 C 69.84375 43.785156 69.761719 43.839844 69.683594 43.886719 C 69.777344 43.765625 69.871094 43.648438 69.960938 43.527344 C 70.125 43.304688 70.289062 43.078125 70.4375 42.847656 C 70.515625 42.734375 70.585938 42.613281 70.65625 42.492188 C 70.691406 42.433594 70.722656 42.375 70.753906 42.308594 C 70.789062 42.246094 70.808594 42.183594 70.832031 42.117188 C 70.804688 42.183594 70.78125 42.242188 70.746094 42.300781 C 70.710938 42.363281 70.679688 42.421875 70.640625 42.484375 C 70.570312 42.597656 70.488281 42.710938 70.410156 42.820312 C 70.246094 43.046875 70.078125 43.257812 69.902344 43.472656 C 69.726562 43.683594 69.546875 43.894531 69.363281 44.09375 C 69.316406 44.144531 69.269531 44.195312 69.226562 44.242188 C 69.136719 44.320312 69.054688 44.402344 68.980469 44.488281 C 68.945312 44.515625 68.914062 44.550781 68.886719 44.578125 C 68.878906 44.554688 68.878906 44.53125 68.875 44.511719 C 69.378906 43.785156 69.824219 43.019531 70.203125 42.214844 L 70.503906 41.542969 L 70.777344 40.859375 L 71.019531 40.164062 L 71.230469 39.460938 L 71.410156 38.75 L 71.5625 38.035156 L 71.683594 37.304688 L 71.777344 36.578125 L 71.835938 35.847656 L 71.863281 35.113281 L 71.859375 34.480469 C 72.328125 34.546875 72.804688 34.585938 73.292969 34.585938 C 73.351562 34.585938 73.410156 34.585938 73.472656 34.585938 C 73.9375 36.332031 73.433594 38.160156 72.738281 39.792969 C 72.402344 40.589844 72.054688 41.410156 71.601562 42.148438 C 71.164062 42.847656 70.597656 43.292969 69.917969 43.734375 Z M 72.242188 38.035156 C 72.382812 37.824219 72.492188 37.589844 72.574219 37.351562 C 72.65625 37.109375 72.707031 36.859375 72.734375 36.601562 C 72.761719 36.351562 72.761719 36.09375 72.746094 35.839844 C 72.722656 35.589844 72.683594 35.339844 72.621094 35.09375 C 72.640625 35.34375 72.65625 35.59375 72.664062 35.847656 C 72.667969 36.097656 72.65625 36.34375 72.628906 36.597656 C 72.601562 36.84375 72.566406 37.089844 72.5 37.328125 C 72.433594 37.570312 72.347656 37.804688 72.242188 38.035156 Z M 71.964844 38.683594 C 71.964844 38.695312 71.964844 38.707031 71.96875 38.722656 C 71.980469 38.859375 72.199219 38.863281 72.1875 38.722656 C 72.1875 38.710938 72.1875 38.699219 72.183594 38.683594 C 72.171875 38.546875 71.953125 38.542969 71.964844 38.683594 Z M 71.789062 39.515625 C 71.929688 39.515625 71.929688 39.296875 71.789062 39.296875 C 71.644531 39.296875 71.644531 39.515625 71.789062 39.515625 Z M 71.480469 40.644531 C 71.625 40.644531 71.625 40.425781 71.480469 40.425781 C 71.34375 40.425781 71.34375 40.644531 71.480469 40.644531 Z M 67.53125 37.359375 C 67.394531 37.875 67.300781 38.398438 67.269531 38.929688 C 67.082031 39.5 66.722656 39.9375 66.320312 40.367188 C 65.90625 40.808594 65.484375 41.253906 65.027344 41.652344 C 64.257812 42.320312 63.34375 42.859375 62.332031 43.007812 C 62.6875 42.757812 63.015625 42.460938 63.304688 42.136719 C 63.484375 41.9375 63.65625 41.730469 63.800781 41.503906 C 63.957031 41.28125 64.085938 41.050781 64.195312 40.804688 C 64.070312 41.039062 63.921875 41.265625 63.757812 41.472656 C 63.59375 41.679688 63.414062 41.875 63.226562 42.0625 C 62.960938 42.320312 62.671875 42.554688 62.359375 42.757812 C 62.878906 42.066406 62.910156 40.992188 62.945312 40.1875 C 63 38.746094 62.933594 37.214844 63.726562 35.941406 C 64.882812 34.804688 65.976562 33.59375 67.289062 32.628906 C 67.859375 33.042969 68.46875 33.398438 69.121094 33.6875 C 67.558594 34.257812 66.109375 35.113281 64.867188 36.207031 C 66.125 35.195312 67.5625 34.421875 69.082031 33.921875 C 67.414062 35.140625 66.1875 36.925781 65.640625 38.890625 C 66.234375 36.988281 67.46875 35.3125 69.078125 34.175781 C 68.382812 35.140625 67.839844 36.214844 67.53125 37.359375 Z M 63.972656 38.253906 C 63.660156 38.253906 63.660156 38.734375 63.972656 38.734375 C 64.285156 38.738281 64.285156 38.253906 63.972656 38.253906 Z M 73.558594 38.109375 C 73.394531 38.707031 73.175781 39.285156 72.9375 39.855469 C 72.59375 40.667969 72.242188 41.503906 71.78125 42.257812 C 71.453125 42.800781 71.039062 43.214844 70.542969 43.578125 C 70.519531 44.105469 70.984375 44.71875 71.148438 45.292969 C 71.152344 45.28125 71.152344 45.269531 71.160156 45.257812 C 71.273438 44.941406 71.417969 44.636719 71.5625 44.335938 C 71.710938 44.035156 71.863281 43.734375 72.007812 43.433594 C 72.148438 43.132812 72.285156 42.828125 72.363281 42.5 C 72.300781 42.828125 72.175781 43.144531 72.046875 43.449219 C 71.914062 43.761719 71.773438 44.0625 71.640625 44.367188 C 71.507812 44.675781 71.378906 44.980469 71.28125 45.296875 C 71.253906 45.386719 71.226562 45.476562 71.203125 45.566406 C 71.214844 45.714844 71.199219 45.855469 71.136719 45.996094 C 71.136719 46.042969 71.136719 46.085938 71.136719 46.125 C 71.476562 45.90625 71.792969 45.640625 72.078125 45.347656 C 72.394531 45.023438 72.675781 44.664062 72.902344 44.277344 C 73.136719 43.886719 73.324219 43.46875 73.449219 43.035156 C 73.574219 42.597656 73.636719 42.136719 73.609375 41.683594 C 73.652344 42.136719 73.601562 42.601562 73.488281 43.046875 C 73.375 43.488281 73.199219 43.921875 72.972656 44.320312 C 72.75 44.71875 72.476562 45.097656 72.164062 45.433594 C 71.898438 45.722656 71.601562 45.992188 71.28125 46.214844 C 72.0625 46.160156 72.808594 45.578125 73.410156 45.132812 C 74.148438 44.597656 74.773438 43.921875 74.855469 42.976562 C 74.640625 42.570312 74.449219 42.15625 74.285156 41.734375 C 73.84375 40.582031 73.59375 39.351562 73.558594 38.109375 Z M 93.96875 30.972656 C 94.210938 30.835938 94.441406 30.671875 94.660156 30.5 C 93.867188 31.957031 91.8125 32.15625 90.242188 32.101562 C 90.21875 32.09375 90.199219 32.09375 90.175781 32.101562 C 90.066406 32.097656 89.964844 32.09375 89.863281 32.085938 C 87.933594 31.960938 86.042969 31.335938 84.457031 30.226562 C 84.441406 30.21875 84.425781 30.210938 84.402344 30.210938 C 83.769531 29.730469 83.070312 29.347656 82.304688 29.132812 C 82.484375 28.796875 82.644531 28.441406 82.785156 28.078125 C 83.710938 28.84375 84.722656 29.507812 85.792969 30.03125 C 84.726562 29.453125 83.730469 28.753906 82.835938 27.941406 C 82.894531 27.789062 82.945312 27.632812 83 27.476562 C 83.464844 27.777344 83.941406 28.0625 84.429688 28.324219 C 84.765625 28.5 85.097656 28.671875 85.441406 28.816406 C 85.785156 28.964844 86.136719 29.101562 86.496094 29.199219 C 86.140625 29.085938 85.796875 28.9375 85.460938 28.78125 C 85.121094 28.617188 84.792969 28.441406 84.46875 28.253906 C 83.984375 27.96875 83.507812 27.660156 83.042969 27.335938 C 83.109375 27.125 83.167969 26.90625 83.21875 26.6875 C 84.03125 26.816406 84.839844 26.996094 85.640625 27.234375 C 86.570312 27.503906 87.480469 27.84375 88.363281 28.253906 C 89.234375 28.671875 90.074219 29.179688 90.972656 29.5625 C 91.421875 29.753906 91.886719 29.90625 92.367188 30 C 92.789062 30.082031 93.222656 30.109375 93.648438 30.089844 C 93.957031 30.28125 94.296875 30.402344 94.636719 30.335938 C 94.40625 30.535156 94.167969 30.71875 93.902344 30.882812 C 93.558594 31.097656 93.183594 31.265625 92.785156 31.347656 C 92.382812 31.4375 91.96875 31.429688 91.570312 31.355469 C 91.164062 31.277344 90.777344 31.136719 90.40625 30.953125 C 90.773438 31.144531 91.15625 31.304688 91.558594 31.390625 C 91.964844 31.484375 92.382812 31.5 92.800781 31.425781 C 93.214844 31.34375 93.609375 31.183594 93.96875 30.972656 Z M 87.433594 29.582031 C 87.414062 29.527344 87.355469 29.484375 87.300781 29.507812 C 87.273438 29.515625 87.253906 29.523438 87.226562 29.535156 C 87.171875 29.554688 87.125 29.609375 87.148438 29.664062 C 87.164062 29.71875 87.226562 29.761719 87.28125 29.742188 C 87.308594 29.730469 87.328125 29.726562 87.355469 29.714844 C 87.410156 29.699219 87.453125 29.644531 87.433594 29.582031 Z M 88.300781 30.046875 C 88.285156 29.992188 88.226562 29.949219 88.171875 29.972656 C 88.144531 29.980469 88.121094 29.988281 88.09375 30 C 88.039062 30.019531 87.996094 30.074219 88.015625 30.128906 C 88.035156 30.183594 88.09375 30.226562 88.148438 30.207031 C 88.175781 30.195312 88.199219 30.191406 88.226562 30.179688 C 88.28125 30.164062 88.324219 30.109375 88.300781 30.046875 Z M 89.351562 30.429688 C 89.308594 30.390625 89.234375 30.382812 89.199219 30.429688 C 89.164062 30.46875 89.152344 30.527344 89.1875 30.574219 C 89.160156 30.609375 89.164062 30.675781 89.199219 30.707031 C 89.242188 30.753906 89.308594 30.753906 89.351562 30.707031 C 89.425781 30.644531 89.433594 30.5 89.351562 30.429688 Z M 76.640625 5.035156 C 76.71875 4.984375 76.800781 4.929688 76.878906 4.882812 C 76.785156 5 76.691406 5.121094 76.597656 5.242188 C 76.433594 5.464844 76.269531 5.691406 76.121094 5.921875 C 76.046875 6.035156 75.976562 6.15625 75.90625 6.273438 C 75.871094 6.335938 75.839844 6.394531 75.804688 6.460938 C 75.773438 6.519531 75.75 6.585938 75.730469 6.652344 C 75.757812 6.585938 75.777344 6.527344 75.816406 6.464844 C 75.851562 6.40625 75.882812 6.347656 75.921875 6.285156 C 75.992188 6.171875 76.074219 6.058594 76.148438 5.949219 C 76.3125 5.722656 76.484375 5.511719 76.660156 5.296875 C 76.832031 5.082031 77.015625 4.875 77.199219 4.671875 C 77.242188 4.625 77.292969 4.574219 77.335938 4.527344 C 77.425781 4.449219 77.507812 4.367188 77.582031 4.28125 C 77.613281 4.253906 77.648438 4.21875 77.675781 4.191406 C 77.679688 4.214844 77.679688 4.238281 77.6875 4.257812 C 77.183594 4.984375 76.734375 5.75 76.359375 6.554688 L 76.058594 7.226562 L 75.785156 7.910156 L 75.542969 8.605469 L 75.332031 9.308594 L 75.148438 10.019531 L 74.996094 10.734375 L 74.875 11.460938 L 74.785156 12.191406 L 74.722656 12.921875 L 74.695312 13.65625 L 74.703125 14.289062 C 74.230469 14.222656 73.757812 14.183594 73.269531 14.183594 C 73.210938 14.183594 73.148438 14.183594 73.089844 14.183594 C 72.625 12.4375 73.128906 10.609375 73.820312 8.976562 C 74.160156 8.175781 74.503906 7.359375 74.957031 6.621094 C 75.394531 5.914062 75.964844 5.472656 76.640625 5.035156 Z M 74.320312 10.734375 C 74.175781 10.945312 74.066406 11.179688 73.984375 11.417969 C 73.902344 11.660156 73.855469 11.910156 73.828125 12.167969 C 73.800781 12.417969 73.800781 12.675781 73.816406 12.925781 C 73.839844 13.179688 73.875 13.429688 73.941406 13.675781 C 73.921875 13.425781 73.902344 13.171875 73.898438 12.921875 C 73.894531 12.671875 73.902344 12.425781 73.929688 12.171875 C 73.957031 11.925781 73.996094 11.679688 74.0625 11.441406 C 74.128906 11.199219 74.214844 10.964844 74.320312 10.734375 Z M 74.597656 10.085938 C 74.597656 10.074219 74.597656 10.0625 74.59375 10.046875 C 74.582031 9.910156 74.363281 9.90625 74.375 10.046875 C 74.375 10.058594 74.375 10.070312 74.378906 10.085938 C 74.390625 10.222656 74.609375 10.222656 74.597656 10.085938 Z M 74.773438 9.25 C 74.628906 9.25 74.628906 9.46875 74.773438 9.46875 C 74.914062 9.46875 74.914062 9.25 74.773438 9.25 Z M 75.078125 8.117188 C 74.9375 8.117188 74.9375 8.335938 75.078125 8.335938 C 75.214844 8.335938 75.214844 8.117188 75.078125 8.117188 Z M 73 10.652344 C 73.164062 10.058594 73.382812 9.480469 73.625 8.910156 C 73.96875 8.09375 74.320312 7.257812 74.777344 6.503906 C 75.105469 5.964844 75.523438 5.546875 76.019531 5.1875 C 76.039062 4.65625 75.578125 4.046875 75.414062 3.472656 C 75.40625 3.480469 75.40625 3.492188 75.402344 3.503906 C 75.285156 3.820312 75.144531 4.128906 74.996094 4.429688 C 74.847656 4.726562 74.695312 5.027344 74.554688 5.328125 C 74.410156 5.628906 74.277344 5.9375 74.199219 6.265625 C 74.257812 5.9375 74.382812 5.621094 74.515625 5.3125 C 74.648438 5 74.789062 4.699219 74.921875 4.394531 C 75.050781 4.089844 75.183594 3.78125 75.28125 3.464844 C 75.308594 3.378906 75.335938 3.285156 75.359375 3.199219 C 75.347656 3.050781 75.363281 2.910156 75.421875 2.765625 C 75.421875 2.722656 75.421875 2.679688 75.421875 2.640625 C 75.085938 2.859375 74.765625 3.121094 74.484375 3.417969 C 74.167969 3.738281 73.886719 4.101562 73.65625 4.488281 C 73.421875 4.875 73.238281 5.296875 73.109375 5.730469 C 72.984375 6.167969 72.925781 6.625 72.953125 7.078125 C 72.910156 6.625 72.957031 6.160156 73.074219 5.71875 C 73.1875 5.273438 73.363281 4.84375 73.585938 4.445312 C 73.8125 4.046875 74.085938 3.667969 74.394531 3.328125 C 74.664062 3.039062 74.957031 2.773438 75.28125 2.546875 C 74.5 2.601562 73.75 3.1875 73.148438 3.628906 C 72.410156 4.164062 71.789062 4.84375 71.707031 5.789062 C 71.917969 6.195312 72.109375 6.609375 72.273438 7.03125 C 72.71875 8.1875 72.96875 9.417969 73 10.652344 Z M 73 10.652344 " fill-opacity="1" fill-rule="nonzero"/></g><path stroke-linecap="butt" transform="matrix(0.7425, 0, 0, 0.7425, 10.457811, 7.243994)" fill="none" stroke-linejoin="miter" d="M 5.438765 34.998621 L 12.904044 12.444958 L 18.885736 12.444958 L 26.366797 34.998621 L 21.658253 34.998621 L 20.158884 30.421601 L 11.473067 30.421601 L 10.005264 34.998621 Z M 12.77252 26.391718 L 18.85417 26.391718 L 15.823867 17.069327 Z M 44.148785 18.784395 C 43.570081 17.847947 42.870376 17.158763 42.044408 16.711583 C 41.21844 16.269664 40.182034 16.043443 38.929929 16.043443 C 36.878161 16.043443 35.389315 16.706322 34.47391 18.026819 C 33.553245 19.347315 33.095543 21.309647 33.095543 23.919075 C 33.095543 26.502198 33.547984 28.396138 34.458128 29.595633 C 35.36301 30.795128 36.820291 31.400136 38.835232 31.400136 C 40.355645 31.400136 41.755056 31.08448 43.038726 30.453166 L 43.038726 26.949378 L 38.635317 26.949378 L 38.635317 22.88793 L 47.652573 22.88793 L 47.652573 32.862678 C 46.605645 33.646559 45.311453 34.277872 43.764736 34.756618 C 42.212758 35.235364 40.618692 35.472106 38.977278 35.472106 C 35.457707 35.472106 32.806191 34.556702 31.027993 32.720633 C 29.244533 30.879303 28.355434 27.948958 28.355434 23.919075 C 28.355434 15.954007 31.859222 11.971473 38.866798 11.971473 C 40.908044 11.971473 42.691504 12.313434 44.211916 12.997357 C 45.732329 13.68128 46.889736 14.68612 47.684139 16.011878 Z M 64.971598 34.998621 L 59.221387 26.460111 L 56.890789 26.460111 L 56.890789 34.998621 L 52.292725 34.998621 L 52.292725 12.444958 L 60.489274 12.444958 C 63.393315 12.444958 65.513475 12.965791 66.855016 14.007458 C 68.196556 15.049125 68.869957 16.764192 68.869957 19.142139 C 68.869957 21.062383 68.464864 22.598578 67.654679 23.734942 C 66.844494 24.876567 65.697608 25.607838 64.208761 25.923494 L 70.237802 34.998621 Z M 64.208761 19.336794 C 64.208761 18.184647 63.914148 17.411288 63.335445 17.021979 C 62.75148 16.632669 61.793988 16.438014 60.457709 16.438014 L 56.890789 16.438014 L 56.890789 22.451272 L 60.263054 22.451272 C 61.294199 22.451272 62.088601 22.351314 62.641 22.156659 C 63.19866 21.962004 63.593231 21.65687 63.840495 21.241255 C 64.082499 20.830901 64.208761 20.194327 64.208761 19.336794 Z M 64.208761 19.336794 " stroke="#ffffff" stroke-width="0.709425" stroke-opacity="1" stroke-miterlimit="4"/><path stroke-linecap="butt" transform="matrix(0.7425, 0, 0, 0.7425, 10.457811, 7.243994)" fill="none" stroke-linejoin="miter" d="M 118.017688 34.998621 L 109.800095 18.879092 L 109.800095 34.998621 L 105.301988 34.998621 L 105.301988 12.444958 L 111.267898 12.444958 L 118.912048 27.649084 L 118.912048 12.444958 L 123.425937 12.444958 L 123.425937 34.998621 Z M 128.297571 34.998621 L 128.297571 12.444958 L 142.949297 12.444958 L 142.949297 16.501145 L 132.895635 16.501145 L 132.895635 21.309647 L 141.371015 21.309647 L 141.371015 25.381617 L 132.895635 25.381617 L 132.895635 30.795128 L 142.949297 30.795128 L 142.949297 34.998621 Z M 156.68562 16.648452 L 156.68562 34.998621 L 152.092817 34.998621 L 152.092817 16.648452 L 145.148372 16.648452 L 145.148372 12.444958 L 163.630065 12.444958 L 163.630065 16.648452 Z M 156.68562 16.648452 " stroke="#ffffff" stroke-width="0.709425" stroke-opacity="1" stroke-miterlimit="4"/><g fill="#322415" fill-opacity="1"><g transform="translate(14.170311, 33.231492)"><g><path d="M 0.328125 0 L 5.875 -16.75 L 10.3125 -16.75 L 15.859375 0 L 12.359375 0 L 11.25 -3.40625 L 4.796875 -3.40625 L 3.71875 0 Z M 5.765625 -6.390625 L 10.28125 -6.390625 L 8.03125 -13.3125 Z M 5.765625 -6.390625 "/></g></g></g><g fill="#322415" fill-opacity="1"><g transform="translate(30.348099, 33.231492)"><g><path d="M 12.890625 -12.046875 C 12.460938 -12.734375 11.941406 -13.242188 11.328125 -13.578125 C 10.710938 -13.910156 9.941406 -14.078125 9.015625 -14.078125 C 7.492188 -14.078125 6.390625 -13.582031 5.703125 -12.59375 C 5.023438 -11.613281 4.6875 -10.160156 4.6875 -8.234375 C 4.6875 -6.304688 5.019531 -4.894531 5.6875 -4 C 6.363281 -3.113281 7.445312 -2.671875 8.9375 -2.671875 C 10.070312 -2.671875 11.113281 -2.90625 12.0625 -3.375 L 12.0625 -5.984375 L 8.796875 -5.984375 L 8.796875 -8.984375 L 15.484375 -8.984375 L 15.484375 -1.578125 C 14.710938 -1.003906 13.75 -0.539062 12.59375 -0.1875 C 11.445312 0.164062 10.265625 0.34375 9.046875 0.34375 C 6.429688 0.34375 4.460938 -0.332031 3.140625 -1.6875 C 1.816406 -3.050781 1.15625 -5.234375 1.15625 -8.234375 C 1.15625 -14.140625 3.757812 -17.09375 8.96875 -17.09375 C 10.476562 -17.09375 11.796875 -16.835938 12.921875 -16.328125 C 14.054688 -15.828125 14.921875 -15.082031 15.515625 -14.09375 Z M 12.890625 -12.046875 "/></g></g></g><g fill="#322415" fill-opacity="1"><g transform="translate(47.469693, 33.231492)"><g><path d="M 11.234375 0 L 6.953125 -6.34375 L 5.234375 -6.34375 L 5.234375 0 L 1.8125 0 L 1.8125 -16.75 L 7.90625 -16.75 C 10.050781 -16.75 11.625 -16.359375 12.625 -15.578125 C 13.625 -14.804688 14.125 -13.539062 14.125 -11.78125 C 14.125 -10.34375 13.820312 -9.203125 13.21875 -8.359375 C 12.613281 -7.515625 11.757812 -6.972656 10.65625 -6.734375 L 15.140625 0 Z M 10.65625 -11.625 C 10.65625 -12.476562 10.4375 -13.050781 10 -13.34375 C 9.570312 -13.632812 8.863281 -13.78125 7.875 -13.78125 L 5.234375 -13.78125 L 5.234375 -9.3125 L 7.734375 -9.3125 C 8.492188 -9.3125 9.078125 -9.382812 9.484375 -9.53125 C 9.898438 -9.675781 10.195312 -9.898438 10.375 -10.203125 C 10.5625 -10.515625 10.65625 -10.988281 10.65625 -11.625 Z M 10.65625 -11.625 "/></g></g></g><g fill="#322415" fill-opacity="1"><g transform="translate(63.012885, 33.231492)"><g/></g></g><g fill="#322415" fill-opacity="1"><g transform="translate(68.966118, 33.231492)"><g/></g></g><g fill="#322415" fill-opacity="1"><g transform="translate(74.91935, 33.231492)"><g/></g></g><g fill="#322415" fill-opacity="1"><g transform="translate(80.872583, 33.231492)"><g/></g></g><g fill="#322415" fill-opacity="1"><g transform="translate(86.830891, 33.231492)"><g><path d="M 11.25 0 L 5.15625 -11.96875 L 5.15625 0 L 1.8125 0 L 1.8125 -16.75 L 6.25 -16.75 L 11.921875 -5.453125 L 11.921875 -16.75 L 15.265625 -16.75 L 15.265625 0 Z M 11.25 0 "/></g></g></g><g fill="#322415" fill-opacity="1"><g transform="translate(103.904085, 33.231492)"><g><path d="M 1.8125 0 L 1.8125 -16.75 L 12.6875 -16.75 L 12.6875 -13.734375 L 5.234375 -13.734375 L 5.234375 -10.171875 L 11.515625 -10.171875 L 11.515625 -7.140625 L 5.234375 -7.140625 L 5.234375 -3.125 L 12.6875 -3.125 L 12.6875 0 Z M 1.8125 0 "/></g></g></g><g fill="#322415" fill-opacity="1"><g transform="translate(117.807061, 33.231492)"><g><path d="M 8.984375 -13.625 L 8.984375 0 L 5.578125 0 L 5.578125 -13.625 L 0.421875 -13.625 L 0.421875 -16.75 L 14.140625 -16.75 L 14.140625 -13.625 Z M 8.984375 -13.625 "/></g></g></g></svg>